<svg viewBox="0 0 343 343" fill="none" xmlns="http://www.w3.org/2000/svg">
<path d="M235.775 72.1527C233.053 64.8844 230.213 57.301 210.984 62.4303C200.658 65.1845 192.003 74.9155 184.927 89.3664C179.604 100.859 175.106 115.721 171.518 133.539C164.186 169.949 161.098 217.049 162.541 262.842L159.342 262.942L159.3 261.561C158.323 228.494 159.694 194.81 163.311 164.945C147.922 148.951 130.382 136.345 117.6 132.158C87.3113 125.479 79.3095 143.124 79.5079 158.864C79.5442 161.742 80.55 164.136 81.5632 166.547C82.6109 169.041 83.6666 171.553 83.6666 174.64C83.6666 176.687 79.089 180.915 73.1386 186.411C61.4402 197.217 44.4356 212.924 46.4766 226.593C48.3627 239.225 60.3236 248.817 71.3331 253.973C72.411 254.478 73.585 255.416 74.9975 256.545C76.0021 257.348 77.1273 258.247 78.4245 259.155L78.5242 259.224C79.5431 259.926 81.2249 260.916 83.5694 262.195L84.2927 262.587C117.461 280.48 155.955 268.425 167.95 263.976L168.651 263.713L253.713 262.766L253.703 262.7C253.679 262.561 253.641 262.356 253.592 262.089C252.793 257.756 249.037 237.401 257.034 229.198C282.007 203.582 309.39 130.272 272.159 99.552C263.931 92.7632 255.767 88.6361 249.496 85.4666C245.688 83.5415 242.579 81.9697 240.578 80.3692C238.114 78.3982 236.956 75.3051 235.775 72.1527Z" fill="#FF7FA0"/>
<path fill-rule="evenodd" clip-rule="evenodd" d="M85.133 154.205C83.2585 153.879 86.5714 157.597 86.5714 157.597C86.5714 157.597 87.0076 154.531 85.133 154.205Z" fill="white"/>
<path fill-rule="evenodd" clip-rule="evenodd" d="M113.172 263.052C113.172 263.052 93.0362 254.628 93.0362 242.898C93.0362 239.457 95.1886 239.788 99.4934 243.889C99.9616 244.336 100.632 245.021 101.505 245.944C102.04 246.51 89.9559 231.836 96.0451 229.091C101.981 226.415 103.361 240.306 103.672 240.115C104.017 239.901 103.916 235.699 105.29 233.84C106.029 232.839 108.206 232.625 109.853 233.84C118.504 240.223 113.172 263.052 113.172 263.052Z" fill="white"/>
<path fill-rule="evenodd" clip-rule="evenodd" d="M104.517 177.007C104.517 177.007 96.1411 176.577 94.9994 173.914C93.8576 171.251 100.069 172.764 100.069 172.764L104.517 177.007Z" fill="white"/>
<path fill-rule="evenodd" clip-rule="evenodd" d="M90.3516 164.382C88.4765 163.332 89.5429 160.831 90.3516 160.727C92.7456 160.418 94.6347 165.723 94.8985 166.255C95.3555 167.175 91.303 164.914 90.3516 164.382Z" fill="white"/>
<path fill-rule="evenodd" clip-rule="evenodd" d="M109.634 180.463C109.634 180.463 105.048 168.771 109.293 169.692C113.538 170.614 112.317 184.205 112.317 184.205L109.634 180.463Z" fill="white"/>
<path fill-rule="evenodd" clip-rule="evenodd" d="M106.555 171.947C106.615 173.843 107.425 176.752 108.981 180.719C109.002 180.773 109.03 180.824 109.064 180.871L111.747 184.614C112.126 185.142 112.957 184.916 113.015 184.268L113.064 183.708C113.818 174.646 112.729 169.721 109.442 169.007C107.529 168.592 106.485 169.736 106.555 171.947ZM109.215 170.394C111.258 170.918 112.207 174.708 111.792 181.822L111.766 182.234L110.254 180.125L109.989 179.438C108.683 176.005 108.006 173.481 107.956 171.902L107.952 171.682C107.95 170.486 108.278 170.19 109.144 170.378L109.215 170.394Z" fill="#00160A"/>
<path fill-rule="evenodd" clip-rule="evenodd" d="M93.439 228.382C90.485 229.714 90.6895 233.073 92.9446 237.65L93.1177 237.996C93.5302 238.806 94.0009 239.645 94.5215 240.504L94.7009 240.797L94.6786 240.782C93.8353 240.221 93.1077 239.893 92.4818 239.797C90.8196 239.542 89.9721 240.766 89.9721 242.898C89.9721 251.107 96.9041 258.045 110.585 263.769C111.029 263.955 111.533 263.697 111.642 263.229C115.261 247.737 114.121 237.711 108.028 233.215C106.158 231.835 103.455 231.921 102.378 233.378L102.284 233.51C101.826 234.183 101.507 235.069 101.27 236.17L101.26 236.219L101.229 236.098C101.061 235.439 100.883 234.817 100.681 234.193C100.013 232.128 99.2147 230.505 98.213 229.419C96.8944 227.99 95.2552 227.563 93.439 228.382ZM100.131 238.233L100.472 239.843L100.512 240.01C100.537 240.111 100.56 240.192 100.583 240.261C100.614 240.354 100.647 240.431 100.699 240.513C100.763 240.614 100.842 240.703 100.969 240.78C101.216 240.929 101.533 240.937 101.794 240.776C102.13 240.568 102.212 240.39 102.304 239.802L102.347 239.508C102.377 239.291 102.489 238.368 102.507 238.222C102.582 237.638 102.657 237.157 102.748 236.699C102.964 235.622 103.253 234.809 103.628 234.302C104.141 233.609 105.869 233.554 107.104 234.466L107.266 234.588C112.406 238.546 113.518 247.513 110.43 261.545L110.334 261.973L110.018 261.836C97.635 256.435 91.527 250.106 91.527 242.898C91.527 241.589 91.7557 241.258 92.2459 241.334C93.1135 241.467 94.6291 242.507 96.6704 244.452L96.9312 244.705C97.2424 245.011 97.6246 245.4 98.0771 245.872L98.6799 246.505C98.6902 246.515 98.7057 246.529 98.7366 246.557L98.7465 246.58C98.7704 246.619 98.8469 246.633 99.3566 246.728L99.5343 246.666C99.7444 246.586 99.7779 246.533 99.9565 246.252L99.9972 246.082C100.022 245.97 100.018 245.943 100.005 245.846L99.9714 245.708C99.9639 245.682 99.9582 245.668 99.9488 245.648L99.941 245.631C99.9201 245.586 99.9082 245.563 99.8883 245.533L99.6768 245.248L99.1382 244.535C99.0456 244.411 98.9522 244.285 98.849 244.145C97.9628 242.942 97.1033 241.699 96.2956 240.417C95.539 239.216 94.8786 238.057 94.3393 236.962C92.4367 233.101 92.2849 230.608 94.078 229.8C96.2359 228.827 97.8927 230.622 99.2015 234.672C99.5573 235.772 99.839 236.881 100.131 238.233Z" fill="#00160A"/>
<path fill-rule="evenodd" clip-rule="evenodd" d="M95.8501 166.683L96.4888 167.265C104.408 174.494 109.922 180.262 112.861 184.264C117.991 191.25 122.125 198.497 125.609 206.17C126.847 208.897 127.968 211.597 129.073 214.463L129.374 215.25C129.718 216.155 130.051 217.049 130.414 218.04L131.96 222.305C136.141 233.753 134.757 234.312 130.776 223.176L129.212 218.858C128.885 217.961 128.585 217.15 128.284 216.35L128.057 215.75C126.864 212.614 125.664 209.698 124.326 206.752C120.881 199.164 116.794 192.001 111.725 185.098L111.493 184.785C108.482 180.776 102.891 174.979 94.903 167.726C94.6149 167.465 94.5934 167.019 94.855 166.731C95.1165 166.443 95.5621 166.422 95.8501 166.683ZM77.3139 150.715L87.1761 159.133C88.1006 159.926 88.8211 160.548 89.1651 160.851C89.457 161.108 89.485 161.553 89.2278 161.845C88.9705 162.137 88.5253 162.165 88.2334 161.908L85.6669 159.695C82.2585 156.776 76.8776 152.196 76.3976 151.786C76.1021 151.533 76.0676 151.088 76.3206 150.792C76.5736 150.497 77.0183 150.462 77.3139 150.715Z" fill="#00160A"/>
<path fill-rule="evenodd" clip-rule="evenodd" d="M95.5407 171.611C94.2459 171.905 93.8098 172.919 94.3549 174.19C95.2643 176.312 98.6358 177.408 104.481 177.708C105.13 177.741 105.471 176.949 105.001 176.5L100.553 172.257C100.464 172.172 100.354 172.112 100.235 172.083C98.0653 171.555 96.5215 171.389 95.5407 171.611ZM99.7206 173.402L102.621 176.168L102.447 176.151L102.009 176.105C98.2748 175.687 96.151 174.821 95.6438 173.638L95.591 173.511C95.4359 173.122 95.4918 173.06 95.8509 172.979C96.5127 172.829 97.7515 172.947 99.5165 173.354L99.7206 173.402Z" fill="#00160A"/>
<path fill-rule="evenodd" clip-rule="evenodd" d="M91.4235 267.168C89.6577 268.185 90.3771 269.244 94.1851 270.934C98.2939 272.781 105.941 276.348 119.076 277.353C139.42 278.91 157.944 275.973 181.328 275.973C213.702 275.973 227.912 283.086 239.243 281.446C269.617 277.048 276.498 268.513 267.437 266.311C257.488 263.893 225.868 264.189 215.223 263.494L211.929 263.282L209.099 263.211C178.462 262.459 129.351 263.211 119.76 263.211C100.193 263.211 91.4235 267.168 91.4235 267.168Z" fill="white"/>
<path fill-rule="evenodd" clip-rule="evenodd" d="M181.328 275.973C213.702 275.973 227.912 283.332 239.243 281.692C269.617 277.294 276.498 268.514 267.437 266.311C257.488 263.893 221.349 263.108 212.45 263.301C212.45 263.301 253.36 270.86 251.171 273.364C244.653 280.818 228.423 271.81 198.944 272.073C192.872 272.127 181.328 275.973 181.328 275.973Z" fill="#E7EAEE"/>
<path fill-rule="evenodd" clip-rule="evenodd" d="M121.702 263.531C120.913 263.535 120.281 263.538 119.76 263.538L118.867 263.54C106.146 263.599 96.868 264.936 90.9932 267.587L90.9015 267.634C89.5293 268.424 89.0035 269.588 89.8658 270.783C90.4234 271.556 91.5908 272.285 93.561 273.173L95.2359 273.921C97.3259 274.847 98.5654 275.349 100.426 276.003L100.628 276.074C105.996 277.949 111.953 279.23 118.996 279.768C124.001 280.151 129.101 280.283 134.691 280.205L136.648 280.171C140.324 280.095 143.456 279.966 149.176 279.659L159.065 279.111C168.488 278.601 174.237 278.397 181.023 278.392L181.328 278.391C193.475 278.391 203.397 279.316 214.403 281.118L215.358 281.277C217.016 281.565 226.137 283.172 228.655 283.534L228.742 283.546C233.137 284.165 236.388 284.288 239.393 283.853L240.233 283.73C253.876 281.691 263.735 278.654 268.713 275.295C273.688 271.938 273.237 268.092 267.849 266.708L267.684 266.667C263.209 265.579 254.714 264.975 241.514 264.58L238.807 264.503C238.018 264.482 237.203 264.461 236.345 264.44L224.854 264.174C220.429 264.065 217.716 263.97 215.662 263.845L211.996 263.611L209.126 263.538L206.208 263.472C197.747 263.295 187.641 263.211 176.073 263.204L172.634 263.204C164.573 263.209 156.23 263.248 146.915 263.318L121.702 263.531ZM178.764 265.299C190.309 265.319 200.32 265.42 208.598 265.618L211.903 265.7L215.661 265.941C217.729 266.064 220.436 266.158 224.793 266.265L235.862 266.521C237.167 266.553 238.372 266.584 239.529 266.616L242.24 266.695C254.823 267.086 263.002 267.682 267.19 268.7L267.441 268.763C270.914 269.675 271.028 271.209 267.543 273.56C262.778 276.776 243.216 285.391 229.392 282.454L228.757 282.364C225.835 281.93 216.043 279.734 215.466 279.638L214.046 279.405C203.446 277.698 193.771 276.804 182.109 276.765L180.413 276.765C173.438 276.784 167.432 277.017 157.225 277.582L150.143 277.976C143.292 278.349 140.026 278.483 135.764 278.56L135.421 278.566C113.806 279.405 100.628 274.37 100.628 274.37C98.9034 273.754 94.4404 272.204 94.4404 272.204L94.1082 272.052C83.6958 268.517 106.429 265.69 118.885 265.632L122.768 265.617L145.324 265.422C155.825 265.341 165.071 265.296 174.013 265.295L178.764 265.299Z" fill="#00160A"/>
<path fill-rule="evenodd" clip-rule="evenodd" d="M226.798 248.433C226.798 248.433 226.743 251.534 227.697 252.969C228.652 254.404 231.314 258.396 233.79 259.446C234.553 259.77 237.465 259.811 239.215 260.833C242.729 262.887 243.512 266.586 239.215 267.37C230.683 268.926 227.697 264.429 227.697 264.429C227.697 264.429 224.183 259.446 220.66 256.142C217.138 252.838 214.331 251.843 214.331 251.843" fill="white"/>
<path d="M256.241 112.085C255.053 111.996 254.355 112.899 254.355 113.992C254.355 117.775 260.535 122.948 264.563 122.948C265.743 122.948 266.709 122.104 266.366 120.813C266.237 120.327 265.94 119.895 265.452 119.363L265.344 119.248C264.796 118.665 264.229 118.145 262.958 117.051L261.011 115.383C260.533 114.969 259.773 114.31 259.544 114.113L259.267 113.879C258.735 113.43 258.323 113.103 257.956 112.843C257.306 112.384 256.803 112.128 256.241 112.085Z" fill="white"/>
<path fill-rule="evenodd" clip-rule="evenodd" d="M216.759 186.257C216.759 186.257 214.419 179.578 208.404 177.769C206.493 177.195 214.853 189.811 207.475 194.517C205.172 195.986 201.077 196.748 196.038 197.465C173.576 200.663 166.804 192.281 152.939 188.188C147.379 186.547 120.336 179.287 116.247 216.269C113.688 239.417 133.072 246.591 150.444 250.269C185.246 257.638 238.572 254.734 255.203 230.448C275.028 201.499 244.558 176.289 240.265 173.624C239.226 172.979 242.207 181.252 242.538 185.436C242.869 189.621 240.265 191.142 240.265 191.142C240.265 191.142 239.239 186.712 230.166 185.952C221.093 185.192 216.759 186.257 216.759 186.257Z" fill="white"/>
<path fill-rule="evenodd" clip-rule="evenodd" d="M83.2643 155.438C83.5823 156.187 84.3219 157.18 85.5245 158.53C86.3185 159.421 87.7917 158.976 87.9598 157.794C88.3439 155.095 87.5403 153.2 85.3732 152.823C83.6769 152.529 82.5815 153.828 83.2643 155.438ZM86.5714 157.597L86.3563 157.353C84.3328 155.045 83.925 153.995 85.133 154.205C86.3828 154.422 86.8622 155.553 86.5714 157.597Z" fill="#00160A"/>
<path fill-rule="evenodd" clip-rule="evenodd" d="M90.2621 160.031C89.4738 160.132 88.8313 161.058 88.6543 162.08C88.4507 163.256 88.8879 164.366 90.0092 164.994L90.7824 165.422C91.5282 165.831 92.1979 166.182 92.8495 166.495L93.1518 166.637C93.6372 166.862 94.0301 167.019 94.3288 167.101C94.6345 167.185 94.8665 167.209 95.1141 167.119C95.6432 166.925 95.736 166.425 95.5531 166L95.4953 165.871C95.4221 165.7 95.2416 165.269 95.1377 165.029L95.1152 164.977C94.8322 164.33 94.5436 163.733 94.2258 163.164C93.0492 161.056 91.7839 159.835 90.2621 160.031ZM93.1459 164.112C93.3364 164.47 93.5181 164.844 93.6967 165.239L93.7556 165.371L93.583 165.291L93.457 165.231C92.6223 164.83 91.7401 164.355 90.6941 163.77C90.1292 163.454 89.928 162.943 90.0361 162.319C90.083 162.048 90.1894 161.786 90.3227 161.594C90.3634 161.535 90.4037 161.488 90.4398 161.453L90.4791 161.419L90.4412 161.422C91.1709 161.328 92.09 162.214 93.0013 163.847L93.1459 164.112Z" fill="#00160A"/>
<path fill-rule="evenodd" clip-rule="evenodd" d="M102.254 172.124C102.129 171.581 95.1439 158.852 100.049 159.251C104.954 159.651 103.786 174.079 103.615 174.079C103.414 174.079 102.343 172.514 102.254 172.124Z" fill="white"/>
<path fill-rule="evenodd" clip-rule="evenodd" d="M97.6035 161.148C97.6037 162.365 98.01 163.978 98.7388 165.936C98.9576 166.525 99.2028 167.136 99.4722 167.77L99.6368 168.153C100.284 169.645 101.582 172.33 101.57 172.281C101.64 172.584 101.931 173.09 102.316 173.646L102.457 173.849C102.927 174.516 103.161 174.758 103.557 174.778L103.724 174.783C104.2 174.807 104.2 174.971 104.31 174.279L104.349 174.026C104.366 173.922 104.383 173.787 104.4 173.626L104.41 173.526C104.454 173.076 104.493 172.489 104.52 171.847C104.589 170.189 104.57 168.414 104.434 166.758L104.397 166.337C103.959 161.694 102.684 158.763 100.106 158.552C98.4576 158.418 97.6033 159.449 97.6035 161.148ZM99.9918 159.95C101.635 160.084 102.691 162.66 103.036 166.872C103.167 168.466 103.186 170.185 103.119 171.789L103.096 172.266L103.071 172.223C103.003 172.107 102.956 172.019 102.941 171.98L102.937 171.967C102.907 171.836 101.5 168.924 100.923 167.595C100.598 166.844 100.306 166.128 100.053 165.447C99.3782 163.633 99.006 162.157 99.0059 161.147C99.0057 160.228 99.2412 159.912 99.9176 159.945L99.9918 159.95Z" fill="#00160A"/>
<path fill-rule="evenodd" clip-rule="evenodd" d="M121.529 197.984C121.529 197.984 123.066 195.85 123.929 194.79C124.793 193.73 125.718 192.842 125.718 192.842C125.718 192.842 104.861 190.767 97.6355 185.389C88.2011 178.366 79.7381 166.719 71.2134 164.256C61.0222 161.31 57.2505 168.141 54.311 168.698C45.3564 170.395 28.9561 175.223 36.4553 189.806C38.7706 194.308 46.2705 196.402 51.5542 193.892C57.452 191.09 64.7151 184.227 72.3538 184.227C81.1871 184.227 82.7251 191.464 93.9384 195.301C100.821 197.655 121.529 197.984 121.529 197.984Z" fill="white"/>
<path fill-rule="evenodd" clip-rule="evenodd" d="M146.366 249.588C146.366 249.588 151.458 255.146 153.568 258.722C155.677 262.298 154.938 264.237 157.867 265.89C162.268 268.373 166.804 267.747 168.822 266.427C170.84 265.106 168.947 261.727 164.716 261.727C163.675 261.727 162.451 259.337 161.859 257.756C161.266 256.176 161.537 252.285 161.537 252.285L146.366 249.588Z" fill="white"/>
<path fill-rule="evenodd" clip-rule="evenodd" d="M241.21 175.024C241.21 175.024 274.388 215.718 227.731 239.604C195.099 256.31 141.488 247.291 141.488 247.291C141.488 247.291 199.85 262.98 237.995 244.064C262.335 231.995 267.149 211.479 255.538 190.59C252.499 185.124 241.21 175.024 241.21 175.024Z" fill="#E7EAEE"/>
<path fill-rule="evenodd" clip-rule="evenodd" d="M239.261 172.995C239.679 172.441 240.331 172.434 240.817 172.736C242.383 173.708 245.217 176.061 247.943 178.821C251.726 182.653 255.104 186.994 257.694 191.673C264.785 204.485 264.152 217.897 255.152 231.039C247.197 242.656 231.633 249.667 209.787 252.807C190.678 255.554 168.557 255.174 150.228 251.293L149.308 251.095C138.818 248.805 131.085 245.896 125.234 241.4C117.56 235.503 113.98 227.251 115.207 216.154C117.064 199.356 123.705 190.021 133.716 186.751C137.438 185.535 141.424 185.236 145.538 185.642C148.358 185.92 150.727 186.445 153.235 187.185L153.68 187.318C156.405 188.144 158.723 189.057 162.299 190.641L164.942 191.825C170.42 194.28 173.59 195.445 177.693 196.272C182.856 197.313 188.541 197.436 195.439 196.493L196.462 196.347C202.093 195.526 205.115 194.781 206.912 193.635C209.017 192.293 209.767 190.117 209.467 187.105C209.33 185.735 208.989 184.29 208.452 182.604L208.304 182.15C208.073 181.462 207.395 179.527 207.271 179.107C207.116 178.586 207.045 178.224 207.071 177.886C207.134 177.04 207.876 176.518 208.706 176.768C213.093 178.087 216.243 181.919 218.178 188.13C218.35 188.682 218.042 189.268 217.491 189.44C216.939 189.612 216.353 189.304 216.181 188.753C214.708 184.024 212.557 180.948 209.74 179.446L209.555 179.35L210.317 181.571L210.338 181.635C212.271 189.881 210.835 196.347 197.828 198.345C197.113 198.455 182.73 199.693 176.758 198.215C167.712 195.976 154.872 187.622 147.175 187.318C139.478 187.014 137.786 187.622 134.366 188.739C125.19 191.737 117.558 201.446 116.018 217.482C115.205 225.949 119.779 234.529 127.279 239.814C146.366 253.264 190.627 253.905 209.489 251.194C230.813 248.128 246.786 240.889 254.34 229.857C262.858 217.419 262.595 204.848 255.863 192.686C253.373 188.187 250.111 183.995 246.454 180.291C244.788 178.605 243.085 177.08 241.703 175.968L241.47 175.783L241.672 176.58L242.32 179.069L242.557 180.001C242.593 180.149 242.629 180.292 242.664 180.434L242.787 180.946C243.224 182.785 243.491 184.212 243.581 185.354C243.831 188.51 242.917 190.805 240.793 192.046C240.294 192.337 239.654 192.169 239.362 191.67C239.071 191.171 239.239 190.531 239.738 190.239C241.086 189.452 241.687 187.942 241.495 185.519C241.415 184.506 241.164 183.165 240.749 181.418L240.631 180.931C240.58 180.723 240.528 180.51 240.472 180.288L239.56 176.765C239.424 176.232 239.322 175.812 239.241 175.447L239.217 175.339C239.078 174.704 239.005 174.25 239.001 173.908C238.996 173.558 239.046 173.279 239.261 172.995Z" fill="#00160A"/>
<path fill-rule="evenodd" clip-rule="evenodd" d="M216.675 185.104L217.422 184.978C222.357 184.164 226.34 183.87 229.383 184.1C232.594 184.344 235.998 185.212 239.595 186.7C240.069 186.896 240.295 187.44 240.098 187.915C239.902 188.389 239.358 188.615 238.884 188.418C235.461 187.002 232.247 186.182 229.243 185.955C226.224 185.726 222.134 186.051 216.991 186.937C216.484 187.024 216.004 186.684 215.916 186.178C215.829 185.672 216.169 185.191 216.675 185.104Z" fill="#00160A"/>
<path fill-rule="evenodd" clip-rule="evenodd" d="M222.623 180.932C224.85 180.475 226.884 180.711 228.699 181.648C230.436 182.546 231.942 183.675 233.212 185.034C233.477 185.318 233.462 185.764 233.178 186.03C232.894 186.295 232.448 186.28 232.182 185.996C231.024 184.756 229.648 183.725 228.052 182.9C226.534 182.116 224.827 181.918 222.906 182.312C222.525 182.39 222.152 182.145 222.074 181.764C221.996 181.383 222.241 181.01 222.623 180.932Z" fill="#00160A"/>
<path fill-rule="evenodd" clip-rule="evenodd" d="M227.126 177.243C227.326 176.909 227.758 176.8 228.092 177C229.879 178.068 231.357 179.263 232.526 180.588C233.706 181.924 234.675 183.633 235.437 185.71C235.571 186.075 235.383 186.48 235.018 186.614C234.653 186.748 234.248 186.56 234.114 186.195C233.409 184.274 232.526 182.717 231.47 181.52C230.402 180.31 229.036 179.206 227.369 178.209C227.035 178.009 226.926 177.577 227.126 177.243Z" fill="#00160A"/>
<path fill-rule="evenodd" clip-rule="evenodd" d="M206.713 193.983C207.008 193.563 207.588 193.461 208.008 193.755C208.429 194.05 199.451 206.835 199.451 209.316C199.451 212.006 200.773 213.806 204.293 216.645L205.784 217.831L206.218 218.179C208.4 219.942 209.67 221.179 210.751 222.749C212.26 224.943 212.971 227.394 212.79 230.299C212.567 233.884 211.485 236.36 209.343 239.219L209.148 239.475C208.908 239.785 207.847 241.14 207.556 241.537C206.52 242.953 206.032 244.018 205.943 245.27C205.552 250.784 208.147 257.443 213.781 265.221C214.083 265.637 213.99 266.218 213.574 266.519C213.158 266.82 212.576 266.728 212.275 266.312C206.408 258.212 203.661 251.163 204.088 245.138C204.201 243.541 204.784 242.216 205.917 240.63L206.056 240.438C206.389 239.983 207.606 238.43 207.709 238.296C209.75 235.618 212.701 231.7 210.338 224.245C209.148 220.491 197.853 217.831 197.481 209.841C197.394 207.959 200.532 202.807 206.713 193.983Z" fill="#00160A"/>
<path d="M210.132 232.641L208.834 232.655C201.153 232.753 196.48 233.14 195.037 233.759L194.984 233.782C192.862 234.756 191.192 236.076 189.916 237.657C188.925 238.886 188.225 240.203 187.767 241.517C187.631 241.909 187.525 242.275 187.446 242.609L187.393 242.845L189.614 245.692C189.637 245.721 189.657 245.75 189.675 245.78L189.697 245.811L189.767 245.913C190.247 246.609 190.792 247.29 191.493 248.083L191.816 248.443C192.391 249.071 194.224 251.046 194.847 251.757C196.179 253.279 197.301 254.742 198.375 256.422C200.013 258.983 201.457 261.941 202.754 265.522L202.847 265.784L202.941 266.052C203.054 266.384 203.165 266.725 203.285 267.109L203.833 268.904C204.641 271.551 205.206 272.767 206.101 273.503L206.252 273.624C207.425 274.538 208.519 274.763 211.559 274.86L212.448 274.884C216.49 274.995 218.598 271.785 216.285 269.453C215.56 268.721 213.168 268.154 209.255 267.917C208.742 267.886 209.224 266.565 209.255 266.052C209.286 265.54 209.727 265.149 210.24 265.181C210.693 265.208 211.128 265.24 211.546 265.275C206.364 257.765 203.834 251.365 204.236 245.692C204.35 244.095 204.178 243.469 205.312 241.883L205.528 241.586C205.941 241.035 207.007 239.675 207.103 239.549C207.975 238.404 208.584 237.466 209.071 236.443L209.167 236.237L209.199 236.163L209.253 236.044C209.51 235.457 209.782 234.445 210.058 233.027L210.132 232.641Z" fill="white"/>
<path fill-rule="evenodd" clip-rule="evenodd" d="M188.293 241.766C189.026 243.904 190.304 245.208 192.084 247.227L192.334 247.508C192.778 247.997 194.793 250.166 195.452 250.919C196.785 252.44 197.906 253.903 198.981 255.583C200.619 258.144 202.063 261.102 203.36 264.683C203.422 264.856 203.484 265.032 203.546 265.214L203.716 265.722C203.754 265.839 203.792 265.958 203.831 266.081L204.053 266.795C204.166 267.167 204.396 267.927 204.438 268.066L204.561 268.462C205.305 270.836 205.857 271.966 206.707 272.665L206.857 272.785C207.981 273.66 209.031 273.904 211.787 274.008L213.054 274.046C217.096 274.157 219.204 270.947 216.891 268.614C216.166 267.883 213.774 267.316 209.861 267.078C209.348 267.047 208.958 266.606 208.989 266.094C209.02 265.581 209.461 265.191 209.974 265.222L210.461 265.254C214.548 265.537 217.088 266.171 218.212 267.305C221.832 270.956 218.608 275.955 213.168 275.908L212.514 275.892C208.63 275.787 207.238 275.509 205.526 274.101C204.305 273.097 203.641 271.747 202.789 269.027L202.237 267.216L202.06 266.647C201.984 266.409 201.912 266.188 201.84 265.974L201.787 265.815C201.728 265.644 201.67 265.478 201.611 265.316C200.361 261.862 198.976 259.028 197.414 256.585C196.472 255.112 195.491 253.814 194.344 252.479L194.053 252.144C193.382 251.377 191.195 249.025 190.891 248.685C188.908 246.469 187.723 244.678 186.878 242.319L186.791 242.072C185.147 237.274 183.035 235.637 180.277 236.66C179.796 236.838 174.406 239.424 179.626 235.953C184.845 232.483 188.293 241.766 188.293 241.766Z" fill="#00160A"/>
<path fill-rule="evenodd" clip-rule="evenodd" d="M220.742 208.732C219.729 208.732 218.275 205.821 218.275 204.399C218.275 202.977 221.913 203.459 221.913 203.459C221.913 203.459 225.734 203.971 225.207 205.401C224.68 206.831 221.305 208.732 220.742 208.732Z" fill="#FFB61D"/>
<ellipse cx="214.752" cy="198.262" rx="2.00666" ry="3.74881" fill="#00160A"/>
<ellipse cx="233.943" cy="199.11" rx="2.19918" ry="3.69009" fill="#00160A"/>
<path fill-rule="evenodd" clip-rule="evenodd" d="M232.508 205.305C234.183 204.586 236.037 204.449 238.05 204.889C240.018 205.319 245.948 209.03 245.74 209.359C245.533 209.688 239.529 206.654 237.749 206.265C236.014 205.887 234.459 206.001 233.064 206.6C232.707 206.753 232.292 206.588 232.139 206.23C231.985 205.873 232.151 205.459 232.508 205.305Z" fill="#00160A"/>
<path fill-rule="evenodd" clip-rule="evenodd" d="M233.575 207.74C235.334 207.833 235.792 207.432 238.201 208.996C240.609 210.559 242.409 214.242 242.08 214.449C241.751 214.656 239.828 211.371 237.622 209.718C235.416 208.064 232.814 208.795 232.835 208.406C232.854 208.039 233.151 207.753 233.511 207.74L233.575 207.74Z" fill="#00160A"/>
<path fill-rule="evenodd" clip-rule="evenodd" d="M221.364 210.258C220.875 213.294 220.998 215.227 221.181 217.384C221.364 219.541 223.088 222.646 223.261 223.944C223.434 225.242 220 219.89 219.792 217.621C219.584 215.351 218.112 209.184 220.683 209.471C220.683 209.471 221.418 209.921 221.364 210.258Z" fill="#00160A"/>
<path fill-rule="evenodd" clip-rule="evenodd" d="M208.567 205.676C210.129 205.676 210.762 205.715 212.282 206.014C212.664 206.089 212.912 206.459 212.837 206.841C212.762 207.223 212.392 207.472 212.01 207.396C211.469 207.29 210.431 206.837 208.71 206.855C206.358 206.88 204.311 208.186 204.208 207.969C204.042 207.618 207.006 205.676 208.567 205.676Z" fill="#00160A"/>
<path fill-rule="evenodd" clip-rule="evenodd" d="M211.121 202.651C211.5 202.741 211.735 203.12 211.645 203.499C211.556 203.877 211.176 204.112 210.798 204.023C207.415 203.225 204.701 203.246 202.787 203.172C200.904 203.098 196.68 203.393 196.557 203.024C196.433 202.655 207.658 201.835 211.121 202.651Z" fill="#00160A"/>
<path fill-rule="evenodd" clip-rule="evenodd" d="M226.814 247.503C227.327 247.512 227.736 247.936 227.727 248.449C227.694 250.345 227.959 251.684 228.472 252.454C230.621 255.685 232.444 257.865 234.153 258.59C234.2 258.61 234.311 258.638 234.484 258.672L234.741 258.718C234.933 258.75 235.744 258.873 235.886 258.895C236.421 258.98 236.861 259.061 237.291 259.158C238.24 259.373 239.03 259.649 239.684 260.031C241.648 261.179 242.945 262.857 243.071 264.507C243.217 266.414 241.831 267.838 239.381 268.285C233.366 269.382 229.156 268.306 226.938 264.965C224.629 261.692 222.324 258.977 220.024 256.821C217.761 254.698 215.753 253.334 214.02 252.72C213.536 252.548 213.283 252.017 213.455 251.533C213.626 251.049 214.158 250.795 214.642 250.967C216.651 251.679 218.862 253.181 221.296 255.464C223.694 257.713 226.08 260.522 228.472 263.914C230.22 266.547 233.688 267.433 239.048 266.455C240.637 266.165 241.282 265.503 241.217 264.649C241.143 263.687 240.228 262.503 238.745 261.636C238.282 261.366 237.66 261.149 236.88 260.972C236.544 260.896 236.193 260.829 235.778 260.761L234.434 260.552L234.174 260.507C233.852 260.446 233.623 260.386 233.427 260.302C232.149 259.76 230.835 258.593 229.46 256.949C228.553 255.864 227.857 254.888 226.923 253.484C226.163 252.341 225.828 250.655 225.868 248.417C225.877 247.903 226.301 247.494 226.814 247.503Z" fill="#00160A"/>
<path fill-rule="evenodd" clip-rule="evenodd" d="M234.325 264.658C234.416 264.35 234.74 264.176 235.048 264.267C236.005 264.553 236.683 264.869 237.096 265.245C237.488 265.601 237.875 266.148 238.272 266.89C238.424 267.173 238.317 267.525 238.034 267.677C237.751 267.828 237.399 267.721 237.247 267.438C236.908 266.803 236.592 266.357 236.314 266.105C236.058 265.873 235.52 265.622 234.715 265.381C234.408 265.289 234.233 264.965 234.325 264.658Z" fill="#00160A"/>
<path fill-rule="evenodd" clip-rule="evenodd" d="M237.357 263.428C237.458 263.124 237.787 262.959 238.092 263.06C238.911 263.333 239.521 263.644 239.926 264.012C240.327 264.377 240.713 264.966 241.103 265.788C241.24 266.078 241.117 266.425 240.827 266.562C240.537 266.7 240.19 266.576 240.053 266.286C239.722 265.59 239.412 265.116 239.144 264.872C238.88 264.632 238.404 264.389 237.725 264.163C237.42 264.062 237.255 263.733 237.357 263.428Z" fill="#00160A"/>
<path fill-rule="evenodd" clip-rule="evenodd" d="M212.477 271.437C212.578 271.132 212.907 270.968 213.212 271.069C214.032 271.342 214.641 271.653 215.046 272.021C215.447 272.385 215.833 272.975 216.223 273.797C216.361 274.087 216.237 274.433 215.947 274.571C215.657 274.709 215.311 274.585 215.173 274.295C214.842 273.598 214.532 273.124 214.264 272.881C214 272.641 213.525 272.398 212.845 272.172C212.54 272.07 212.375 271.741 212.477 271.437Z" fill="#00160A"/>
<path fill-rule="evenodd" clip-rule="evenodd" d="M214.168 269.464C214.269 269.16 214.598 268.995 214.903 269.096C215.722 269.369 216.332 269.68 216.737 270.048C217.138 270.413 217.524 271.002 217.914 271.824C218.051 272.114 217.928 272.461 217.638 272.598C217.348 272.736 217.001 272.613 216.864 272.323C216.533 271.626 216.223 271.152 215.955 270.908C215.691 270.668 215.215 270.425 214.536 270.199C214.231 270.098 214.066 269.769 214.168 269.464Z" fill="#00160A"/>
<path fill-rule="evenodd" clip-rule="evenodd" d="M145.737 248.902C146.116 248.555 152.535 255.917 153.911 258.25C154.355 259.001 154.705 259.725 155.016 260.5C155.112 260.738 155.202 260.974 155.298 261.241L155.663 262.272C156.205 263.777 157.104 264.392 158.324 265.08C161.904 267.1 166.131 267.076 168.313 265.648C169.522 264.857 167.888 262.656 164.716 262.656C163.233 262.656 161.958 260.669 160.988 258.083C160.534 256.871 160.42 254.938 160.61 252.22C160.646 251.708 161.09 251.322 161.602 251.357C162.114 251.393 162.501 251.837 162.465 252.35C162.293 254.82 162.393 256.534 162.729 257.43L162.827 257.683C163.48 259.32 164.441 260.797 164.716 260.797C166.951 260.797 168.842 261.658 169.859 263.027C170.934 264.476 170.792 266.248 169.331 267.205C166.551 269.024 161.579 269.052 157.41 266.7C155.8 265.791 155.093 264.849 154.433 263.07L154.078 262.071C153.959 261.737 153.857 261.465 153.748 261.193C153.47 260.502 153.16 259.862 152.767 259.195C151.399 256.876 149.035 253.878 145.68 250.216C145.333 249.837 145.359 249.249 145.737 248.902Z" fill="#00160A"/>
<path fill-rule="evenodd" clip-rule="evenodd" d="M162.956 264.658C163.048 264.35 163.372 264.176 163.679 264.267C164.637 264.553 165.314 264.869 165.728 265.245C166.12 265.601 166.507 266.148 166.904 266.89C167.055 267.173 166.949 267.525 166.665 267.677C166.382 267.828 166.03 267.721 165.879 267.438C165.539 266.803 165.224 266.357 164.946 266.105C164.69 265.873 164.152 265.622 163.347 265.381C163.039 265.289 162.864 264.965 162.956 264.658Z" fill="#00160A"/>
<path fill-rule="evenodd" clip-rule="evenodd" d="M165.143 263.71C165.244 263.405 165.573 263.241 165.878 263.342C166.698 263.615 167.307 263.926 167.712 264.294C168.114 264.658 168.499 265.248 168.889 266.07C169.027 266.36 168.903 266.706 168.613 266.844C168.323 266.982 167.977 266.858 167.839 266.568C167.508 265.871 167.198 265.397 166.93 265.154C166.666 264.914 166.191 264.671 165.511 264.445C165.206 264.343 165.042 264.014 165.143 263.71Z" fill="#00160A"/>
<path fill-rule="evenodd" clip-rule="evenodd" d="M57.952 165.358L57.7555 165.494C57.1333 165.928 55.9351 166.803 55.6712 166.988L55.6441 167.007C54.9605 167.478 54.4987 167.716 54.1379 167.785C47.7625 168.993 42.2564 170.345 38.4874 173.198C33.2173 177.188 30.3705 184.166 33.9815 191.188C36.551 196.184 46.265 197.434 51.9532 194.732C52.9264 194.27 53.9631 193.691 55.2138 192.926L55.7337 192.605C55.9136 192.493 56.0986 192.376 56.2956 192.252L57.6574 191.383L59.1463 190.429L59.6914 190.085C65.1661 186.645 68.6444 185.157 72.3538 185.157C75.42 185.157 77.5778 185.999 80.2884 187.988L80.4928 188.139C80.9635 188.491 84.0182 190.928 85.0497 191.679C87.7223 193.625 90.3611 195.06 93.6373 196.181L93.9254 196.276C98.7201 197.828 107.891 198.698 121.515 198.914C121.819 198.919 122.106 198.775 122.284 198.528L122.815 197.794C123.578 196.748 124.19 195.941 124.65 195.377C125.202 194.699 125.773 194.078 126.362 193.514C126.935 192.965 126.601 191.996 125.811 191.917L124.991 191.834C111.694 190.451 102.743 188.031 98.1907 184.643L97.8589 184.394C95.4312 182.558 93.1128 180.487 89.5786 177.096L85.0115 172.709C83.2058 170.988 82.5712 170.429 81.3061 169.354L81.108 169.186C78.1505 166.678 75.5845 164.959 73.0954 163.933C72.5492 163.708 72.0083 163.518 71.4715 163.362C65.9289 161.761 61.9498 162.651 57.952 165.358ZM70.9552 165.149C71.4252 165.285 71.9021 165.453 72.3868 165.652C74.5925 166.561 76.9271 168.107 79.6333 170.375L80.6924 171.276C81.8581 172.278 82.6651 173.028 85.3517 175.61L88.5376 178.674C92.1457 182.129 94.5089 184.221 97.0803 186.135L97.2313 186.246C101.903 189.639 110.388 192.024 122.732 193.456L123.742 193.57L123.728 193.586C123.611 193.72 123.495 193.856 123.38 193.994L123.126 194.303L122.932 194.546C122.564 195.013 122.126 195.591 121.617 196.283L121.059 197.046L119.929 197.026C107.115 196.765 98.5278 195.888 94.2394 194.421C91.2702 193.405 88.866 192.121 86.4361 190.386L86.1443 190.175C85.1543 189.454 82.1116 187.027 81.6058 186.65C78.502 184.331 75.9458 183.298 72.3538 183.298C68.1897 183.298 64.4669 184.888 58.7114 188.504L57.8269 189.065L55.9301 190.281C55.3672 190.64 54.9223 190.921 54.4897 191.188L54.0093 191.482C52.9149 192.145 52.001 192.65 51.1553 193.052C46.3332 195.343 39.3688 193.438 37.2822 189.381C34.0909 183.175 35.2138 178.614 39.7743 175.161C43.2581 172.524 48.3683 170.771 54.4841 169.612C55.1242 169.491 55.7411 169.184 56.546 168.643L56.6992 168.538C56.9378 168.374 58.3848 167.317 58.9372 166.937L58.9948 166.898C62.5654 164.48 65.9894 163.714 70.9552 165.149Z" fill="#00160A"/>
<path fill-rule="evenodd" clip-rule="evenodd" d="M293.647 190.421L293.559 190.634L293.383 191.074C291.096 196.876 289.077 205.766 287.314 217.764L287.211 218.469L287.205 218.435C286.523 214.411 285.661 211.285 284.612 209.046C282.789 205.155 280.192 203.686 277.123 205.082C267.163 209.613 267.758 228.036 278.305 260.412C278.445 260.842 278.846 261.134 279.299 261.134H290.749C291.057 261.134 291.348 260.999 291.547 260.764C305.845 243.9 312.248 232.562 310.683 226.333L310.632 226.136C309.208 220.777 305.646 219.629 300.566 222.509L300.386 222.612L300.639 222.029C309.451 201.615 311.068 189.045 305.114 184.147C300.742 180.55 296.753 182.929 293.647 190.421ZM303.955 184.954C309.197 189.267 307.334 203.39 297.39 225.278C296.935 226.279 308.654 218.435 308.654 226.843L308.692 227.003C309.82 232.179 303.997 242.627 291.158 257.978L290.264 259.042L279.299 259.823C279.299 259.823 264.518 211.016 277.989 206.987C281.866 205.827 284.726 211.457 286.144 226.685C286.261 227.932 288.072 227.959 288.224 226.716L288.349 225.713C290.386 209.425 292.804 197.915 295.579 191.222L295.738 190.845C298.331 184.775 301.026 182.545 303.955 184.954Z" fill="#00160A"/>
<path d="M303.784 185.762C309.026 190.075 306.902 203.28 296.959 225.169C296.504 226.17 297.703 227.104 298.563 226.419L298.912 226.144C304.562 221.747 307.458 222.083 308.654 226.843L308.692 227.003C309.82 232.179 303.997 242.627 291.158 257.978L290.264 259.042H280.06L279.693 257.901C270.074 227.751 269.694 210.76 277.989 206.987C281.816 205.246 284.726 211.457 286.144 226.685C286.261 227.932 288.072 227.959 288.224 226.716L288.349 225.713C290.386 209.425 292.804 197.915 295.579 191.222L295.738 190.845C298.331 184.775 300.856 183.352 303.784 185.762Z" fill="white"/>
<ellipse cx="276.525" cy="220.325" rx="3.71941" ry="3.71939" fill="#E7EAEE"/>
<circle cx="299.772" cy="196.149" r="3.71939" fill="#E7EAEE"/>
<circle cx="301.631" cy="231.948" r="3.71939" fill="#E7EAEE"/>
<path fill-rule="evenodd" clip-rule="evenodd" d="M104.494 263.718C97.9287 263.822 75.3513 265.495 74.9613 264.657C74.4624 263.585 99.0829 262.176 104.45 262.091L106.131 262.068C111.01 262.016 104.494 263.718 104.494 263.718ZM201.069 261.542C201.646 261.526 202.127 261.982 202.142 262.56C202.157 263.137 201.701 263.618 201.124 263.633L191.779 263.864C185.963 263.997 179.222 264.136 169.261 264.332C168.683 264.343 168.206 263.884 168.194 263.307C168.183 262.729 168.642 262.252 169.219 262.24L186.859 261.881C192.214 261.765 196.516 261.662 201.069 261.542ZM225.17 261.054C225.748 261.045 226.224 261.506 226.233 262.084C226.242 262.661 225.781 263.137 225.203 263.146L222.752 263.176L215.252 263.228C213.682 263.244 212.452 263.265 211.003 263.301C210.426 263.315 209.946 262.858 209.932 262.281C209.918 261.703 210.375 261.224 210.952 261.209L212.797 261.17C214.005 261.148 215.232 261.134 216.863 261.122L223.1 261.081C223.825 261.073 224.481 261.065 225.17 261.054ZM292.965 259.042C292.965 259.042 294.843 258.718 308.555 259.744C309.131 259.787 309.564 260.289 309.52 260.865C309.477 261.442 302.697 261.151 293.427 261.134L290.878 261.138C284.071 261.169 277.748 261.353 267.254 261.785L254.008 262.344C248.356 262.576 244.984 262.689 240.883 262.785C240.305 262.799 239.826 262.342 239.812 261.764C239.799 261.187 240.256 260.707 240.834 260.694L244.127 260.608C248.044 260.494 252.069 260.337 259.206 260.032L266.773 259.711C278.606 259.221 285.186 259.042 292.965 259.042Z" fill="#00160A"/>
<path d="M261.269 108.46L261.509 108.02C263.385 104.622 265.018 102.936 266.924 103.486C267.078 103.53 267.23 103.591 267.378 103.668C268.546 104.273 268.826 105.399 268.498 106.935L268.477 107.03L268.532 106.951C269.085 106.165 269.613 105.558 270.16 105.107L270.278 105.013C271.494 104.066 272.785 103.978 273.953 104.965C275.819 106.54 275.607 109.182 274.084 110.808L274 110.896C273.788 111.11 273.66 111.573 273.518 112.663L273.395 113.619C273.247 114.721 273.148 115.204 272.916 115.951C272.477 117.361 271.756 118.538 270.635 119.499C269.226 120.706 266.848 120.538 263.498 119.161C263.138 119.013 262.966 118.602 263.114 118.242C263.262 117.882 258.415 113.608 258.269 113.795L258.221 113.849C257.952 114.13 257.506 114.139 257.225 113.869L256.544 113.213C256.134 112.818 256.339 112.125 256.898 112.015C257.922 111.814 258.716 111.592 259.274 111.356C259.743 111.157 259.999 110.967 260.06 110.843C260.06 110.843 261.078 108.817 261.269 108.46Z" fill="white"/>
<path fill-rule="evenodd" clip-rule="evenodd" d="M256.241 112.085C255.053 111.996 254.355 112.899 254.355 113.992C254.355 117.775 260.535 122.948 264.563 122.948C265.743 122.948 266.709 122.104 266.366 120.813C266.237 120.327 265.94 119.895 265.452 119.363L265.344 119.248C264.796 118.665 264.229 118.145 262.958 117.051L261.011 115.383C260.533 114.969 259.773 114.31 259.544 114.113L259.267 113.879C258.735 113.43 258.323 113.103 257.956 112.843C257.306 112.384 256.803 112.128 256.241 112.085ZM255.764 113.992C255.764 112.513 257.883 114.558 260.434 116.746L262.128 118.195C264.202 119.984 266.734 121.844 265.452 121.981C261.39 122.413 255.764 117.027 255.764 113.992Z" fill="#00160A"/>
<path fill-rule="evenodd" clip-rule="evenodd" d="M256.566 102.172C256.857 101.914 258.312 100.898 257.561 102.232C256.81 103.565 252.467 105.256 256.81 111.999C256.975 112.255 256.773 112.77 256.411 112.912C256.049 113.054 255.64 112.876 255.498 112.514C254.4 109.718 253.892 107.694 253.99 106.378C254.093 104.983 254.968 103.588 256.566 102.172Z" fill="#00160A"/>
<path fill-rule="evenodd" clip-rule="evenodd" d="M251.141 104.519C251.217 104.138 251.97 103.194 251.97 103.967C251.97 104.74 250.864 106.702 252.421 108.912C253.978 111.122 256.657 112.621 256.428 112.936C256.199 113.25 255.758 113.319 255.444 113.09C253.189 111.448 251.821 110.164 251.305 109.157C250.767 108.106 250.73 106.568 251.141 104.519Z" fill="#00160A"/>
<path fill-rule="evenodd" clip-rule="evenodd" d="M261.269 108.46L261.509 108.02C263.385 104.622 265.018 102.936 266.924 103.486C267.078 103.53 267.23 103.591 267.378 103.668C268.546 104.273 268.826 105.399 268.498 106.935L268.477 107.03L268.532 106.951C269.085 106.165 269.613 105.558 270.16 105.107L270.278 105.013C271.494 104.066 272.785 103.978 273.953 104.965C275.819 106.54 275.607 109.182 274.084 110.808L274 110.896C273.788 111.11 273.66 111.573 273.518 112.663L273.395 113.619C273.247 114.721 273.148 115.204 272.916 115.951C272.477 117.361 271.756 118.538 270.635 119.499C269.226 120.706 266.848 120.538 263.498 119.161C263.138 119.013 262.966 118.602 263.114 118.242C263.262 117.882 268.334 120.829 270.278 118.538C272.221 116.247 272.431 111.507 272.992 110.071L273.127 109.82C274.202 108.734 274.238 107.049 273.044 106.042C272.428 105.521 271.87 105.56 271.143 106.125C270.481 106.64 269.792 107.525 268.996 108.812L268.763 109.196C268.372 109.857 267.587 111.226 267.484 111.4L267.34 111.637C266.858 112.425 266.243 112.919 266.151 112.94C266.06 112.961 265.93 112.888 265.898 112.221C265.888 112.002 265.943 111.781 266.06 111.481L266.107 111.364C266.248 111.02 267.026 109.403 267.08 109.287C267.316 108.778 267.506 108.334 267.663 107.916C268.296 106.228 267.354 105.243 266.73 104.919C266.663 104.884 266.597 104.858 266.533 104.839C265.565 104.56 264.219 105.996 262.647 108.874L262.306 109.511C262.054 109.992 261.808 110.486 261.323 111.467C260.971 112.181 260.031 112.692 258.463 113.105L258.377 113.127L258.385 113.147C258.454 113.364 258.415 113.608 258.269 113.795L258.221 113.849C257.952 114.13 257.506 114.139 257.225 113.869L256.544 113.213C256.134 112.818 256.339 112.125 256.898 112.015C257.922 111.814 258.716 111.592 259.274 111.356C259.743 111.157 259.999 110.967 260.06 110.843L260.718 109.519C260.921 109.118 261.078 108.817 261.269 108.46Z" fill="#00160A"/>
<ellipse cx="270.513" cy="110.615" rx="1.60068" ry="1.3123" fill="#FFB61D"/>
<ellipse cx="265.939" cy="106.956" rx="1.60068" ry="1.31231" fill="#FFB61D"/>
<path fill-rule="evenodd" clip-rule="evenodd" d="M256.099 116.161C255.876 115.963 255.597 115.605 255.351 115.218L255.034 115.359L254.659 115.52C254.584 115.554 254.535 115.581 254.52 115.603C254.477 115.683 254.377 115.714 254.296 115.671C254.217 115.629 254.185 115.529 254.228 115.449C254.258 115.373 254.468 115.133 254.859 114.899C254.93 114.857 255.008 114.817 255.092 114.779C254.948 114.509 254.835 114.249 254.782 114.04C254.702 113.732 254.766 113.514 254.871 113.437C254.975 113.361 255.235 113.347 255.631 113.676C255.703 113.731 255.715 113.835 255.66 113.907C255.604 113.978 255.501 113.992 255.428 113.936C255.353 113.881 255.277 113.849 255.216 113.826L255.246 113.944C255.257 113.986 255.272 114.03 255.292 114.073C255.363 114.228 255.453 114.406 255.554 114.587C255.864 114.47 256.216 114.365 256.596 114.313C256.782 114.289 256.971 114.284 257.167 114.285C257.279 114.278 257.377 114.364 257.385 114.477C257.392 114.589 257.307 114.687 257.194 114.695C256.736 114.739 256.313 114.854 255.94 114.984L255.817 115.028C256.019 115.344 256.236 115.631 256.421 115.793C256.522 115.882 256.532 116.037 256.444 116.138C256.354 116.24 256.2 116.25 256.099 116.161Z" fill="#FFB61D"/>
<path fill-rule="evenodd" clip-rule="evenodd" d="M148.554 241.983C147.397 247.432 141.815 248.978 141.876 253.365C141.907 255.634 142.534 257.516 143.048 258.964C144.094 261.907 146.82 264.939 148.082 267.746C149.161 270.144 154.574 268.522 155.006 272.25C155.241 274.28 151.412 275.45 150.37 275.529C148.874 275.643 146.978 275.129 144.682 273.988C141.889 272.631 139.647 271.562 138.024 269.607C137.708 269.226 137.509 268.149 137.159 266.457C136.776 264.604 135.468 259.896 132.049 252.293C131.561 251.208 129.692 246.764 127.614 242.219C125.899 238.469 132.987 230.955 136.13 231.218C143.851 231.864 149.371 238.134 148.554 241.983Z" fill="white"/>
<path fill-rule="evenodd" clip-rule="evenodd" d="M143.141 274.069C141.219 272.924 139.638 271.606 138.399 270.112C138.082 269.731 137.849 268.327 137.499 266.634C137.316 265.747 130.643 249.739 128.443 243.714C128.032 242.59 129.029 243.376 129.263 243.714C130.54 245.554 138.399 257.692 142.153 268.936" fill="#E7EAEE"/>
<path fill-rule="evenodd" clip-rule="evenodd" d="M144.639 273.59L144.924 273.731C147.084 274.804 148.827 275.276 150.128 275.178C151.526 275.072 153.808 273.811 153.909 272.738C154.071 271.016 153.604 270.527 151.299 269.656C150.631 269.404 148.824 269.459 146.038 269.881C145.531 269.958 145.057 269.608 144.98 269.101C144.903 268.593 145.252 268.119 145.76 268.042L146.218 267.975C149.067 267.567 150.934 267.53 151.957 267.917L152.26 268.034C155.026 269.128 156.01 270.259 155.76 272.913C155.549 275.161 152.463 276.866 150.269 277.032C148.633 277.156 146.661 276.64 144.338 275.515L144.104 275.4C141.198 273.988 138.884 272.253 137.171 270.19C136.946 269.918 136.802 269.556 136.654 269.001L136.619 268.869C136.564 268.654 136.51 268.415 136.446 268.115L136.077 266.306L136.02 266.042C135.414 263.326 133.657 258.314 130.996 252.359L130.59 251.463C130.34 250.918 126.771 245.134 126.504 243.778C125.508 238.71 129.581 236.2 129.581 236.2C129.581 236.2 127.469 240.657 128.064 242.848C128.527 244.552 132.433 250.414 133.823 254.908C135.261 259.559 136.766 264.521 138.964 268.578C140.624 271.641 141.812 273.029 144.639 273.59Z" fill="#00160A"/>
<path fill-rule="evenodd" clip-rule="evenodd" d="M149.148 272.548C149.24 272.241 149.564 272.066 149.871 272.158C150.829 272.444 151.506 272.76 151.92 273.135C152.312 273.492 152.699 274.038 153.096 274.781C153.247 275.064 153.14 275.416 152.857 275.567C152.574 275.718 152.222 275.612 152.071 275.329C151.731 274.694 151.415 274.248 151.138 273.996C150.882 273.763 150.344 273.512 149.539 273.271C149.231 273.18 149.056 272.856 149.148 272.548Z" fill="#00160A"/>
<path fill-rule="evenodd" clip-rule="evenodd" d="M150.771 270.755C150.873 270.45 151.202 270.285 151.506 270.387C152.326 270.66 152.935 270.971 153.34 271.339C153.742 271.703 154.127 272.293 154.517 273.115C154.655 273.405 154.531 273.751 154.242 273.889C153.952 274.027 153.605 273.903 153.467 273.613C153.136 272.916 152.827 272.442 152.559 272.199C152.294 271.958 151.819 271.716 151.139 271.49C150.835 271.388 150.67 271.059 150.771 270.755Z" fill="#00160A"/>
<path fill-rule="evenodd" clip-rule="evenodd" d="M144.952 233.3C146.997 234.122 151.018 238.681 150.396 241.241C149.753 243.889 148.809 244.947 147.308 246.702L147.151 246.883C146.693 247.404 144.803 249.325 144.728 249.405L144.548 249.603C142.864 251.505 142.175 253.607 143.546 257.482C144.55 260.32 146.201 263.546 148.481 266.623C148.781 267.029 149.53 268.221 149.124 268.521C148.718 268.822 147.757 267.85 147.456 267.444C145.074 264.229 143.347 261.112 142.278 258.092C140.664 253.528 141.054 251.648 143.281 249.191L143.423 249.037C143.662 248.789 145.3 247.123 145.734 246.639L145.777 246.59C147.177 244.998 148.1 243.311 148.692 240.873C149.101 239.188 147.381 236.197 143.745 233.769C141.332 232.157 142.908 232.477 144.952 233.3Z" fill="#00160A"/>
</svg>
