<svg viewBox="0 0 274 274" fill="none" xmlns="http://www.w3.org/2000/svg">
<path fill-rule="evenodd" clip-rule="evenodd" d="M137.098 51.3754C201.611 62.2119 246.6 99.0315 246.6 157.818C246.6 228.281 190.709 155.068 152.17 196.15C113.631 237.232 31.523 238.396 27.5953 157.818C23.9186 82.387 72.5845 40.5388 137.098 51.3754Z" fill="#43DFA8"/>
<path fill-rule="evenodd" clip-rule="evenodd" d="M104.12 165.286L121.186 143.212L121.577 143.523C124.098 145.504 126.096 146.81 127.573 147.44L128.011 147.625C135.106 150.61 139.985 151.623 139.201 152.324L138.23 153.197C131.959 158.858 123.372 167.089 112.47 177.892C110.977 179.501 108.966 180.533 106.792 180.808L104.544 181.077C82.4765 183.689 68.319 183.914 63.1311 182.765C62.0476 182.526 58.7128 183.152 56.1949 185.681C52.4181 189.475 47.0171 198.612 46.1101 198.612C44.7915 198.612 46.034 192.56 49.8376 180.455L50.2396 179.048C52.0117 172.905 53.2865 169.273 54.064 168.152C54.8992 166.947 57.7202 169.073 62.5271 174.53L62.3968 175.239C63.0206 174.516 63.7602 173.746 64.6155 172.93L66.8866 172.658C74.9101 171.684 81.0089 170.793 85.183 169.985L85.6225 169.899C90.1449 169.003 96.3108 167.465 104.12 165.286Z" fill="white"/>
<path fill-rule="evenodd" clip-rule="evenodd" d="M210.392 142.418L216.737 147.199C217.955 148.116 218.848 149.4 219.283 150.862L220.485 154.887C221.051 156.105 220.556 157.552 219.363 158.168L217.123 159.83C215.681 160.574 213.924 159.768 213.546 158.19L212.284 153.704C212.284 153.704 206.937 152.079 206.226 145.716L210.392 142.418Z" fill="white"/>
<path fill-rule="evenodd" clip-rule="evenodd" d="M179.808 63.8903C184.144 64.0667 186.323 70.0081 187.74 72.945C188.223 73.9455 184.827 103.514 183.717 111.08C181.741 124.555 175.769 128.827 172.019 129.745C172.019 129.745 172.244 145.064 170.674 148.877C167.196 157.32 123.18 151.653 118.878 137.542C115.937 127.896 126.866 126.771 130.967 120.955C138.484 110.296 138.874 100.376 146.972 93.2788C150.041 89.916 153.603 86.5407 156.676 82.482L157.926 80.8371C165.742 70.5981 171.694 63.8047 179.401 63.88L179.808 63.8903Z" fill="white"/>
<path fill-rule="evenodd" clip-rule="evenodd" d="M158.068 89.5202C157.35 89.8664 156.3 89.9739 155.925 89.2705C154.749 87.062 151.152 86.7584 149.623 88.7386C151.091 88.2342 152.801 87.7528 154.113 88.5813C154.478 88.8118 154.793 89.135 155.105 89.4548C155.625 89.9875 156.136 90.5108 156.852 90.581C157.385 90.6332 157.891 90.4091 158.396 90.1861C158.937 89.9468 159.476 89.7087 160.04 89.8148C160.666 89.9326 161.106 90.4309 161.545 90.9294C161.983 91.4263 162.421 91.9234 163.045 92.0439C163.556 92.1425 164.069 91.9593 164.577 91.7778C165.146 91.5749 165.708 91.374 166.255 91.5711C166.908 91.8064 167.206 92.4792 167.505 93.1526C167.802 93.8224 168.099 94.4929 168.746 94.7341C169.129 94.877 169.543 94.8252 169.952 94.7455L170.357 94.6627C171.312 94.4727 172.344 94.4556 173.217 94.8856C173.968 95.2549 174.56 96.0196 174.608 96.8358C174.627 96.6596 174.645 96.4839 174.66 96.3085L174.811 95.3147C173.945 94.2982 172.584 93.7228 171.25 93.8114C171.022 93.8265 170.793 93.8599 170.565 93.8933C170.126 93.9575 169.687 94.0215 169.251 93.9552C168.589 93.8544 167.916 93.2908 168.028 92.6307L168.038 92.5595C168.159 91.4538 166.678 90.8197 165.539 90.9128C165.297 90.9326 165.049 90.9648 164.8 90.9971C163.85 91.1205 162.879 91.2466 162.134 90.7008C161.845 90.4899 161.623 90.1947 161.402 89.9023C161.094 89.4931 160.79 89.0896 160.316 88.9304C159.793 88.7547 159.261 88.939 158.745 89.1839L158.573 89.2674L158.068 89.5202ZM149.809 97.2091C150.304 97.8724 151.321 97.5008 152.106 97.214L152.147 97.1991C154.253 96.4308 156.791 97.0303 158.33 98.6599C159.174 99.5534 160.423 99.3036 161.716 99.0451C162.796 98.8291 163.907 98.607 164.838 99.0402C165.273 99.2427 165.677 99.5853 166.073 99.9211C166.799 100.536 167.498 101.128 168.311 100.793C169.854 100.158 171.747 100.497 172.986 101.609L172.981 101.959L172.976 102.732C171.745 101.499 169.751 101.1 168.14 101.764C167.326 102.099 166.628 101.507 165.902 100.891C165.506 100.556 165.102 100.213 164.667 100.011C163.736 99.5774 162.625 99.7996 161.545 100.016C160.252 100.274 159.003 100.524 158.159 99.6303C156.651 98.0333 154.183 97.4256 152.103 98.1251L151.688 98.2739C150.947 98.5364 150.082 98.775 149.638 98.1795C148.239 96.3011 145.428 95.6426 143.34 96.7038L143.61 95.6846L143.733 95.628C145.795 94.7199 148.459 95.3966 149.809 97.2091ZM145.013 105.585C144.239 105.902 143.237 106.312 142.718 105.669C141.772 104.496 139.61 104.41 136.233 105.412C136.492 105.587 137.158 105.57 137.979 105.549C139.526 105.508 141.623 105.454 142.584 106.645C143.05 107.223 143.906 106.951 144.636 106.661L145.045 106.496C147.097 105.717 149.586 106.23 151.154 107.768C152.032 108.628 153.27 108.331 154.552 108.023C155.623 107.765 156.724 107.501 157.672 107.898C158.115 108.083 158.532 108.41 158.94 108.731C159.689 109.317 160.409 109.882 161.209 109.516L161.321 109.467C162.227 109.085 163.969 109.729 165.547 110.314C166.696 110.739 167.758 111.132 168.349 111.075C164.69 108.922 162.355 108.077 161.343 108.54L161.263 108.574C160.495 108.868 159.797 108.321 159.074 107.754C158.665 107.434 158.248 107.107 157.805 106.922C156.858 106.524 155.757 106.789 154.686 107.046C153.404 107.354 152.166 107.652 151.288 106.791C149.687 105.222 147.129 104.72 145.053 105.569L145.013 105.585ZM152.187 141.126C153.115 141.722 154.317 142.493 155.176 142.07C156.692 141.322 159.426 141.986 163.375 144.061L163.755 144.263C163.368 144.334 162.499 144.067 161.427 143.738L161.427 143.738C159.409 143.117 156.671 142.275 155.082 143.059C154.311 143.439 153.264 142.856 152.386 142.302L151.894 141.99C149.576 140.567 146.445 140.087 144.018 140.758C143.24 141.082 142.157 140.703 140.967 140.286C140.157 140.003 139.297 139.702 138.451 139.593C137.407 139.459 136.87 139.54 136.398 139.61C135.924 139.681 135.517 139.742 134.731 139.566C134.124 139.431 133.153 139.006 131.818 138.292C129.453 137.157 125.261 137.294 123.055 138.084L122.936 138.125C120.578 138.904 120.597 138.05 122.969 137.161L123.149 137.095L123.29 137.046C125.811 136.207 130.479 136.298 132.922 137.865L132.97 137.896C133.898 138.492 135.1 139.264 135.959 138.84L136.023 138.812C136.623 138.565 138.028 138.569 138.464 138.598L138.544 138.605C140.011 138.767 140.33 138.9 140.679 139.154L140.928 139.343L141.071 139.398C141.601 139.605 142.163 139.849 142.758 140.131C143.003 140.109 143.286 140.044 143.62 139.925L143.762 139.876C146.283 139.036 149.696 139.528 152.138 141.095L152.187 141.126ZM141.267 112.975C141.816 113.619 142.876 113.208 143.695 112.892L143.738 112.875C145.933 112.027 148.64 112.528 150.333 114.098C151.262 114.958 152.572 114.66 153.928 114.353C155.061 114.095 156.226 113.831 157.228 114.228C157.697 114.413 158.138 114.74 158.57 115.061C159.336 115.628 160.073 116.174 160.886 115.88L160.971 115.846C162.041 115.383 164.512 116.228 168.383 118.381C167.757 118.438 166.633 118.045 165.418 117.62C163.749 117.036 161.906 116.391 160.947 116.773L160.83 116.822C159.983 117.188 159.221 116.624 158.429 116.037C157.996 115.717 157.555 115.39 157.087 115.204C156.085 114.807 154.919 115.071 153.786 115.329C152.43 115.637 151.12 115.934 150.192 115.074C148.532 113.536 145.899 113.023 143.729 113.802L143.296 113.967C142.523 114.258 141.618 114.529 141.125 113.951C140.109 112.76 137.89 112.815 136.253 112.855C135.384 112.876 134.68 112.894 134.407 112.718C137.979 111.716 140.266 111.802 141.267 112.975ZM140.709 120.928C139.767 121.245 138.547 121.656 137.915 121.012C136.764 119.839 134.133 119.753 130.023 120.755C130.337 120.93 131.148 120.913 132.147 120.892H132.147C134.03 120.852 136.583 120.797 137.752 121.988C138.32 122.566 139.361 122.294 140.25 122.004L140.748 121.839C143.245 121.06 146.275 121.573 148.184 123.111C149.252 123.971 150.76 123.674 152.32 123.366C153.623 123.108 154.964 122.844 156.117 123.241C156.656 123.427 157.164 123.753 157.661 124.074C158.572 124.66 159.449 125.225 160.423 124.859L160.559 124.81C161.662 124.428 163.782 125.072 165.703 125.657C167.101 126.082 168.393 126.475 169.113 126.418C164.659 124.265 161.817 123.42 160.586 123.883L160.488 123.917C159.553 124.211 158.704 123.664 157.824 123.097C157.326 122.777 156.819 122.45 156.28 122.265C155.127 121.867 153.786 122.132 152.483 122.389C150.922 122.697 149.415 122.995 148.347 122.134C146.399 120.565 143.284 120.063 140.758 120.912L140.709 120.928ZM133.394 127.222C134.103 127.866 135.471 127.456 136.528 127.139L136.583 127.122C139.415 126.274 142.908 126.775 145.093 128.345C146.291 129.205 147.982 128.908 149.731 128.6C151.193 128.342 152.697 128.078 153.99 128.475C154.594 128.661 155.164 128.987 155.721 129.308C156.709 129.875 157.661 130.421 158.709 130.127L158.819 130.093C160.2 129.63 163.388 130.475 168.383 132.628C167.575 132.686 166.125 132.292 164.558 131.867C162.403 131.283 160.026 130.638 158.788 131.021L158.637 131.069C157.545 131.436 156.561 130.871 155.539 130.284L155.539 130.284C154.981 129.964 154.412 129.637 153.807 129.451C152.514 129.054 151.011 129.319 149.549 129.576C147.799 129.884 146.109 130.181 144.911 129.321C142.769 127.783 139.372 127.27 136.571 128.049L136.012 128.214C135.016 128.505 133.848 128.776 133.212 128.198C131.9 127.007 129.037 127.062 126.925 127.102C125.804 127.123 124.895 127.141 124.543 126.965C129.152 125.964 132.103 126.049 133.394 127.222ZM133.24 132.618C132.183 132.935 130.815 133.345 130.106 132.702C128.815 131.529 125.864 131.443 121.255 132.445C121.607 132.62 122.516 132.603 123.637 132.582C125.749 132.541 128.612 132.487 129.924 133.678C130.56 134.256 131.728 133.984 132.724 133.694L133.283 133.529C135.903 132.8 139.045 133.202 141.193 134.516C141.852 135.042 142.998 134.976 144.257 134.903C145.113 134.854 146.022 134.802 146.866 134.931C147.906 135.09 148.401 135.315 148.835 135.513C149.27 135.712 149.645 135.882 150.449 135.93C151.381 135.985 153.6 135.508 153.6 135.508C156.187 135.069 160.178 136.356 162.081 137.723L162.185 137.795C164.287 139.229 164.463 138.326 162.264 136.747L162.141 136.661C159.95 135.159 155.438 133.961 152.657 134.794L152.602 134.81C151.546 135.127 150.178 135.537 149.469 134.894C148.975 134.445 147.36 134.008 147.049 133.955C145.403 133.674 145.18 133.762 144.68 133.958L144.635 133.976C144.609 133.986 144.582 133.997 144.553 134.008L144.401 134.021C143.835 134.074 143.227 134.153 142.578 134.26C142.348 134.171 142.094 134.031 141.805 133.824L141.683 133.738C139.491 132.237 136.075 131.769 133.295 132.602L133.24 132.618Z" fill="#FFB61D"/>
<path fill-rule="evenodd" clip-rule="evenodd" d="M178.409 68.3383C184.573 68.3595 189.437 73.5883 189.022 79.7438C189.022 79.7438 181.834 111.01 185.477 122.124C186.887 126.423 207.235 139.802 206.375 141.177L203.503 148.056C202.483 149.685 171.251 128.794 171.251 128.794C168.255 126.416 167.698 79.129 167.698 79.129C167.639 73.1736 172.459 68.3174 178.409 68.3383Z" fill="white"/>
<path d="M210.76 142.418L207.09 149.975L207.016 150.177C206.711 150.96 205.543 151.439 205.393 151.478L205.371 151.478L203.204 150.195C202.956 149.987 202.82 148.816 203.082 147.728L203.144 147.5C203.144 147.5 204.862 141.464 206.285 139.94C207.116 139.051 211.909 139.94 210.76 142.418Z" fill="white"/>
<path fill-rule="evenodd" clip-rule="evenodd" d="M158.474 212.111H149.712C149.712 212.111 159.995 185.414 159.995 178.408C159.995 176.235 151.912 179.509 153.085 176.235C154.697 171.734 160.277 163.683 158.902 159.642C157.465 155.416 152.104 153.885 147.436 152.172C146.541 151.844 162.86 152.977 167.336 149.417C173.24 144.721 168.446 134.349 170.032 138.006C171.945 142.418 184.377 153.487 181.913 165.473C179.512 177.15 158.474 212.111 158.474 212.111Z" fill="white"/>
<path fill-rule="evenodd" clip-rule="evenodd" d="M155.436 217.259L154.642 216.995C154.559 216.967 154.549 216.854 154.626 216.812L155.388 216.398V215.433C155.388 215.347 155.489 215.301 155.554 215.358L156.185 215.912L157.221 215.367C157.309 215.321 157.403 215.417 157.356 215.503L156.765 216.582L157.915 217.784C157.986 217.857 157.913 217.977 157.815 217.949L156.232 217.492L155.623 218.565C155.573 218.654 155.436 218.618 155.436 218.515V218.076V217.259Z" fill="#FFB61D"/>
<path fill-rule="evenodd" clip-rule="evenodd" d="M133.223 158.339C132.842 158.735 132.466 159.135 132.089 159.535C131.377 160.291 130.665 161.048 129.923 161.774C128.533 163.132 127.131 164.483 125.656 165.746C123.828 167.314 121.954 168.833 120.037 170.291C117.868 171.941 115.648 173.524 113.417 175.09C113.298 175.173 113.18 175.257 113.062 175.341C111.924 176.148 110.787 176.954 109.325 177.203C108.908 177.274 108.517 177.484 108.124 177.695C107.811 177.862 107.497 178.031 107.166 178.131C104.886 178.822 102.594 179.481 100.288 180.078C98.872 180.444 97.4263 180.706 95.984 180.957C95.0863 181.114 89.9447 181.931 86.5242 182.427C83.1037 182.923 71.7913 182.923 68.967 182.865C67.3822 182.832 65.7977 182.777 64.2136 182.716L64.1319 182.713H64.1318C63.8089 182.702 63.4659 182.69 63.1855 182.562C61.6297 181.858 60.4259 182.625 59.206 183.403L59.1182 183.459C57.5166 184.479 56.5364 186.014 55.5678 187.586C55.0532 188.421 54.508 189.237 53.9628 190.053L53.9626 190.054C53.3759 190.932 52.7892 191.81 52.2408 192.712C51.5147 193.906 50.8671 195.149 50.2203 196.39C50.1039 196.613 49.9876 196.836 49.8709 197.059C49.0157 198.692 47.7328 199.641 45.8922 199.993C44.9773 200.167 44.1936 199.896 43.4118 199.625C43.1221 199.524 42.8326 199.424 42.5369 199.347C41.958 199.195 41.4913 197.631 41.6977 197.012C42.3003 195.205 42.9041 193.399 43.508 191.593L43.5081 191.592L43.5083 191.592L43.5084 191.591L43.5084 191.591C44.7703 187.816 46.0322 184.042 47.2831 180.263C48.1566 177.625 49.0095 174.979 49.8624 172.334L49.8637 172.329C50.1043 171.583 50.3448 170.837 50.5858 170.091C50.7007 169.736 50.8099 169.378 50.919 169.021L50.9191 169.02C51.1001 168.427 51.2811 167.834 51.4882 167.25C51.5561 167.059 51.837 166.823 52.0279 166.816C53.408 166.761 54.733 167.099 55.9919 167.615C58.3719 168.592 60.2034 170.239 61.5477 172.432C61.9042 173.013 62.5264 173.222 63.3111 173.084C63.6896 173.017 64.0717 172.967 64.4535 172.916C65.0368 172.839 65.6197 172.762 66.1892 172.627C67.4558 172.327 68.738 172.316 70.0197 172.306C70.845 172.3 71.6701 172.293 72.4908 172.209C73.055 172.151 73.6221 172.118 74.1891 172.085C74.9461 172.041 75.7028 171.997 76.4517 171.894C77.8147 171.707 79.171 171.47 80.5274 171.234L80.5322 171.233C81.1732 171.122 81.8143 171.01 82.4561 170.903C82.9761 170.817 83.4971 170.735 84.0181 170.654L84.0184 170.654L84.0188 170.654L84.0192 170.654L84.0196 170.654L84.02 170.654L84.0203 170.654L84.0207 170.654L84.0214 170.654C85.0273 170.496 86.0332 170.339 87.0325 170.147C88.311 169.902 89.5796 169.602 90.8475 169.303L91.3053 169.195C92.6467 168.879 93.9856 168.554 95.3245 168.228C95.8857 168.091 96.447 167.955 97.0084 167.819C97.0966 167.797 97.1844 167.774 97.2724 167.752C97.2558 167.743 97.2392 167.734 97.2224 167.725L97.1806 167.704C97.1141 167.67 97.0477 167.635 96.9843 167.596C96.7895 167.476 96.589 167.362 96.3885 167.249C95.9306 166.989 95.4726 166.73 95.0828 166.392C94.2066 165.632 94.5061 164.369 95.6199 164.032C96.469 163.776 97.344 163.519 98.2208 163.46C99.4019 163.381 100.478 162.988 101.555 162.596C101.988 162.438 102.421 162.28 102.861 162.142C103.899 161.818 104.522 161.207 105.044 160.272C105.295 159.821 105.663 159.44 106.032 159.056L106.032 159.056C106.292 158.786 106.553 158.515 106.775 158.219C107.923 156.684 109.039 155.125 110.126 153.546C110.357 153.21 110.543 152.844 110.729 152.477L110.729 152.476L110.729 152.476L110.729 152.476L110.729 152.475C110.871 152.195 111.013 151.915 111.175 151.648C111.556 151.021 111.945 150.386 112.416 149.828L112.478 149.754C113.558 148.473 114.642 147.188 115.817 145.997C116.458 145.347 117.165 144.763 117.872 144.179L117.872 144.179C118.206 143.904 118.54 143.628 118.868 143.345C119.033 143.202 119.192 143.047 119.33 142.879C119.569 142.591 119.667 142.351 119.307 142.01C119.213 141.921 119.119 141.832 119.025 141.744C118.085 140.86 117.137 139.969 116.624 138.747C116.57 138.619 116.516 138.491 116.461 138.363C116.049 137.39 115.633 136.408 115.399 135.389C115.083 134.018 115.21 132.622 115.619 131.241C116.191 129.307 117.389 127.842 119.011 126.791C120.011 126.142 121.064 125.575 122.117 125.007L122.117 125.007C122.897 124.587 123.678 124.166 124.438 123.712C125.025 123.362 125.528 122.851 126.018 122.353L126.158 122.211C128.364 119.978 129.902 117.277 131.433 114.587C131.596 114.301 131.759 114.015 131.922 113.73C133.403 111.146 134.731 108.473 136.056 105.804C136.437 105.035 136.764 104.24 137.091 103.444L137.091 103.444C137.38 102.74 137.669 102.037 137.996 101.351C138.254 100.81 138.572 100.298 138.891 99.7849L138.891 99.7848C139.125 99.4081 139.359 99.0312 139.57 98.6423C139.796 98.2247 140.003 97.7954 140.209 97.3664L140.209 97.3662L140.209 97.3661C140.522 96.7162 140.834 96.0669 141.215 95.4593C141.486 95.0252 141.88 94.6672 142.273 94.3097C142.438 94.1601 142.603 94.0105 142.758 93.8555C142.952 93.6625 143.149 93.4729 143.346 93.2833L143.346 93.2827L143.347 93.2821C143.552 93.0843 143.758 92.8864 143.96 92.6848C144.315 92.329 144.667 91.9683 145.008 91.5983C145.661 90.8897 146.317 90.1842 146.973 89.4787L146.975 89.4775L146.976 89.4764L146.977 89.4752L146.978 89.4741L146.979 89.4729L146.98 89.4718L146.981 89.4706C148.606 87.7242 150.231 85.9777 151.802 84.1841C153.643 82.0826 155.395 79.8992 157.115 77.6965C157.799 76.8207 158.416 75.8921 159.032 74.9635C159.307 74.5499 159.581 74.1364 159.862 73.7275C159.877 73.7044 159.891 73.6792 159.904 73.6539L159.904 73.6538C159.922 73.6178 159.941 73.5819 159.967 73.5529C160.412 73.0626 160.853 72.5677 161.293 72.0728L161.293 72.0727L161.293 72.0726L161.293 72.0724L161.294 72.0723L161.294 72.0721L161.294 72.072L161.294 72.0719L161.294 72.0716C162.329 70.9089 163.364 69.7461 164.459 68.6432C166.084 67.0065 167.945 65.6494 169.965 64.5191C170.273 64.3468 170.57 64.1511 170.866 63.9557C171.334 63.6478 171.8 63.3405 172.307 63.1262C172.366 63.1012 172.425 63.076 172.485 63.0507L172.669 62.9716C173.637 62.5556 174.652 62.1195 175.652 62.099C177.761 62.0558 179.954 62.0796 181.724 63.5705C182.06 63.853 182.149 63.7864 182.181 63.4086C182.211 63.0478 182.272 62.6763 182.334 62.3046C182.476 61.4388 182.619 60.5723 182.37 59.8395C182.22 59.3965 182.167 58.9494 182.115 58.5062C182.057 58.0048 181.998 57.5084 181.8 57.0285C181.135 55.4242 180.543 53.7899 179.951 52.1564L179.951 52.1562L179.95 52.1561L179.95 52.1559L179.95 52.1557L179.95 52.1555L179.95 52.1552C179.861 51.9095 179.772 51.6637 179.683 51.4182C179.497 50.9083 179.346 50.3727 179.278 49.8363C179.228 49.453 179.212 49.0654 179.195 48.6779V48.6774C179.179 48.2797 179.162 47.8821 179.109 47.4892C178.923 46.0909 179.408 44.8623 179.895 43.6288C179.984 43.4036 180.073 43.1782 180.158 42.9516C181.192 40.1917 183.129 38.1044 185.221 36.1443C187.023 34.4567 190.006 33.9257 192.42 33.5095C193.311 33.3558 199.567 33.2088 202.871 33.1311C203.949 33.1058 204.713 33.0878 204.873 33.0795C205.525 33.0454 205.966 32.7423 206.407 32.4169C207.318 31.7452 207.552 30.7035 207.782 29.6784V29.6784L207.783 29.6745L207.784 29.6707L207.785 29.667C207.807 29.5697 207.828 29.4727 207.851 29.3761C207.856 29.3517 207.862 29.3278 207.867 29.3046C207.926 29.0358 207.968 28.8473 208.372 28.8609C209.721 28.9062 210.415 29.7872 211.076 30.7939C211.82 31.9275 212.422 33.1095 212.629 34.4607C212.881 36.106 212.746 37.6342 211.576 38.9891C210.624 40.091 209.516 40.9332 208.265 41.6399C208.099 41.7337 207.994 42.2305 208.086 42.4427C209.029 44.6175 209.099 46.9102 209.007 49.2119C208.985 49.7706 208.894 50.3264 208.804 50.8823C208.718 51.4089 208.632 51.9357 208.604 52.4653C208.524 53.9841 208.835 55.4449 209.444 56.8574C209.857 57.8156 209.567 58.7231 208.874 59.4762C208.755 59.6052 208.607 59.7132 208.461 59.8203C208.254 59.9709 208.05 60.1198 207.934 60.3227C207.671 60.7818 207.487 61.3342 207.444 61.8607C207.412 62.2637 207.455 62.6719 207.498 63.0811C207.525 63.3353 207.552 63.5899 207.561 63.8438C207.595 64.8212 207.223 65.6572 206.722 66.4916C205.814 68.0014 204.617 69.1123 202.879 69.476C201.39 69.7876 199.843 69.8061 198.405 69.316C196.773 68.7596 195.181 68.0475 193.645 67.2597C193.209 67.036 192.863 66.6341 192.518 66.2324C192.364 66.0527 192.209 65.8731 192.047 65.7095C191.806 65.4672 191.685 65.3969 191.365 65.7355C190.223 66.9448 189.393 68.3186 188.722 69.8354C188.352 70.6725 188.592 71.3605 188.848 72.0935L188.878 72.1797L188.951 72.3888C189.305 73.4035 189.658 74.4133 189.631 75.5236C189.617 76.0723 189.628 76.6226 189.638 77.1726V77.1733V77.174V77.1746V77.1753V77.176V77.1767V77.1773V77.1777C189.655 78.0492 189.672 78.92 189.593 79.7826C189.508 80.7055 189.301 81.6174 189.094 82.5289C189.011 82.8957 188.927 83.2625 188.852 83.6299C188.772 84.0199 188.694 84.4104 188.615 84.8009C188.378 85.982 188.142 87.1632 187.858 88.3332C187.727 88.8748 187.547 89.4042 187.367 89.9338C187.22 90.3671 187.072 90.8006 186.952 91.241C186.812 91.7515 186.67 92.2617 186.528 92.772L186.528 92.7732C185.977 94.7562 185.426 96.74 184.98 98.7468C184.599 100.466 184.378 102.234 184.25 103.992C184.17 105.091 184.182 106.197 184.194 107.303C184.201 107.915 184.207 108.527 184.199 109.137C184.192 109.599 184.168 110.06 184.144 110.521L184.144 110.522C184.113 111.109 184.083 111.696 184.088 112.282L184.09 112.605L184.093 112.984V112.985V112.985V112.985V112.985V112.985V112.985V112.985C184.103 114.534 184.114 116.086 184.25 117.625C184.385 119.161 184.677 120.691 185.014 122.198C185.29 123.436 186.139 124.392 186.981 125.29C187.42 125.757 187.906 126.178 188.392 126.6L188.392 126.6C188.732 126.895 189.073 127.19 189.397 127.501C189.619 127.714 189.819 127.951 190.018 128.188L190.018 128.188L190.018 128.188L190.018 128.188L190.019 128.188L190.019 128.188L190.019 128.189L190.019 128.189L190.019 128.189C190.268 128.484 190.515 128.778 190.805 129.024C191.751 129.829 192.713 130.614 193.675 131.4L193.677 131.402C194.406 131.997 195.135 132.593 195.857 133.196C196.505 133.738 197.144 134.291 197.782 134.845C198.428 135.404 199.073 135.964 199.728 136.511C200.624 137.26 201.533 137.998 202.481 138.675C202.928 138.995 203.396 139.284 203.864 139.574C204.347 139.874 204.831 140.173 205.292 140.506C205.844 140.904 206.273 140.68 206.699 140.457C206.846 140.38 206.993 140.303 207.144 140.252C208.373 139.837 209.345 139.993 209.806 141.175C209.898 141.412 210.039 141.625 210.181 141.839C210.439 142.229 210.7 142.623 210.678 143.173C210.671 143.345 211.042 143.55 211.36 143.726L211.361 143.726C211.437 143.768 211.51 143.808 211.573 143.846C212.509 144.398 213.457 144.931 214.405 145.463C214.607 145.577 214.816 145.681 215.025 145.784C215.428 145.983 215.829 146.182 216.179 146.45C216.535 146.723 216.858 147.039 217.181 147.355C217.505 147.672 217.829 147.989 218.186 148.262C218.922 148.825 219.339 149.6 219.753 150.37C219.905 150.653 220.057 150.935 220.224 151.206C220.686 151.954 220.952 152.872 221.106 153.749C221.313 154.931 221.397 156.148 221.392 157.349C221.39 157.851 221.085 158.389 220.806 158.842C220.505 159.329 220.053 159.399 219.618 158.928C219.582 158.889 219.532 158.864 219.482 158.838L219.481 158.838L219.481 158.838C219.458 158.826 219.435 158.815 219.414 158.802C219.41 158.831 219.407 158.861 219.404 158.89C219.397 158.954 219.391 159.018 219.382 159.081C219.354 159.283 219.332 159.486 219.31 159.69C219.255 160.191 219.201 160.692 219.06 161.168C218.966 161.486 218.557 161.907 218.273 161.921C218.055 161.931 217.826 161.728 217.599 161.528C217.508 161.447 217.417 161.367 217.327 161.301C217.24 161.236 217.166 161.153 217.093 161.07L217.093 161.07L217.069 161.044C217.057 161.03 217.046 161.017 217.035 161.003C217.023 160.989 217.012 160.974 217.001 160.96C216.988 160.944 216.976 160.927 216.964 160.911L216.942 160.88C216.924 160.855 216.906 160.83 216.887 160.806C216.874 160.835 216.86 160.864 216.847 160.893C216.817 160.956 216.788 161.02 216.756 161.083C216.715 161.163 216.679 161.249 216.644 161.335L216.643 161.335C216.563 161.529 216.483 161.722 216.344 161.854C215.808 162.364 215.088 162.165 214.867 161.449C214.753 161.077 214.657 160.698 214.562 160.32L214.562 160.32C214.43 159.795 214.297 159.271 214.114 158.765C214.039 158.557 213.977 158.345 213.914 158.132L213.914 158.132L213.914 158.132L213.914 158.131L213.914 158.131L213.914 158.131L213.914 158.131C213.731 157.508 213.548 156.884 213.035 156.359C212.666 155.982 212.44 155.461 212.215 154.942C212.128 154.74 212.04 154.538 211.945 154.346C211.369 153.187 210.418 152.429 209.319 151.818C209.02 151.651 208.722 151.468 208.462 151.248C207.886 150.758 207.487 151.025 207.136 151.523C206.557 152.347 205.596 152.65 204.703 152.176C203.335 151.449 202.217 150.494 201.845 148.858C201.776 148.556 201.329 148.289 201.002 148.104C200.016 147.548 199.025 147.003 198.033 146.457C196.389 145.553 194.745 144.648 193.128 143.697C191.112 142.511 189.147 141.234 187.185 139.958L187.184 139.958L187.184 139.958L187.183 139.957L187.183 139.957L187.182 139.957L187.182 139.957L187.182 139.956L186.59 139.572C183.495 137.562 180.412 135.535 177.328 133.507L177.326 133.506L177.32 133.502L177.233 133.444L175.514 132.314C174.838 131.87 174.167 131.419 173.495 130.968L173.495 130.967L173.494 130.967L173.494 130.967L173.493 130.966L173.493 130.966L173.492 130.966L173.489 130.964C173.022 130.649 172.554 130.335 172.084 130.022C171.896 129.897 171.698 129.785 171.494 129.688C170.885 129.401 170.706 129.505 170.658 130.157L170.657 130.162C170.657 130.169 170.657 130.177 170.657 130.184L170.657 130.202V130.203C170.657 130.212 170.658 130.221 170.657 130.23L170.619 132.976V132.977V132.977V132.977V132.978V132.978V132.979C170.583 135.5 170.548 138.021 170.511 140.543C170.499 141.348 170.921 141.966 171.336 142.574C171.421 142.697 171.505 142.82 171.585 142.944C173.051 145.215 174.548 147.467 176.06 149.709C176.474 150.322 176.903 150.926 177.332 151.53L177.332 151.53L177.332 151.531L177.333 151.531L177.333 151.532L177.333 151.532L177.334 151.533L177.334 151.534C177.983 152.447 178.631 153.359 179.227 154.305C179.53 154.785 179.71 155.342 179.891 155.898C179.97 156.143 180.049 156.387 180.139 156.625C180.18 156.733 180.223 156.841 180.266 156.949L180.266 156.949L180.266 156.95L180.266 156.95L180.266 156.95L180.266 156.95L180.266 156.95L180.266 156.95C180.382 157.241 180.498 157.532 180.571 157.833C181.16 160.269 180.895 162.686 180.313 165.078C180.274 165.238 180.235 165.398 180.196 165.559L180.196 165.559C179.834 167.052 179.471 168.553 178.944 169.989C178.521 171.14 177.993 172.253 177.465 173.366L177.465 173.366C177.211 173.902 176.956 174.438 176.714 174.979C176.29 175.923 175.88 176.873 175.475 177.825C174.789 179.44 174.106 181.056 173.431 182.675C173.188 183.258 172.953 183.845 172.718 184.432L172.717 184.433L172.716 184.435L172.715 184.437L172.715 184.439L172.714 184.442L172.713 184.444L172.712 184.446C172.238 185.63 171.763 186.814 171.224 187.968C170.448 189.629 169.586 191.251 168.724 192.871L168.724 192.871L168.723 192.871L168.723 192.871L168.723 192.872L168.723 192.872L168.723 192.872L168.723 192.872L168.505 193.281L168.352 193.57C167.813 194.585 167.261 195.593 166.709 196.601L166.708 196.604L166.707 196.606L166.707 196.606L166.707 196.606L166.707 196.606L166.706 196.606L166.706 196.607C166.173 197.581 165.64 198.555 165.118 199.535C164.642 200.431 164.179 201.333 163.715 202.236L163.714 202.237C163.219 203.201 162.724 204.166 162.213 205.122C161.487 206.481 160.726 207.821 159.943 209.148C159.292 210.252 159.48 210.766 160.235 211.783C161.052 212.885 162.322 213.253 163.582 213.541C167.038 214.33 170.502 215.088 173.965 215.845L174.139 215.883C174.488 215.959 174.841 216.016 175.194 216.072C175.591 216.136 175.988 216.2 176.379 216.292C178.329 216.748 179.308 218.183 179.83 219.963C180.164 221.102 180.262 222.325 179.355 223.271C179.013 223.629 178.387 223.894 177.889 223.896C171.481 223.917 165.074 223.921 158.666 223.925H158.65C154.608 223.927 150.567 223.929 146.525 223.936C146.054 223.937 146.02 223.795 145.985 223.381C145.948 222.96 145.873 222.539 145.799 222.12C145.689 221.503 145.579 220.888 145.593 220.275C145.658 217.326 146.691 214.685 148.499 212.366C148.63 212.198 148.841 212.087 149.05 211.978C149.283 211.856 149.511 211.737 149.621 211.543C150.148 210.611 150.6 209.619 150.946 208.605C151.501 206.98 152.053 205.34 152.409 203.665C152.572 202.895 152.809 202.149 153.045 201.402L153.045 201.402C153.339 200.474 153.633 199.545 153.789 198.568C153.953 197.536 154.382 196.542 154.808 195.555C154.94 195.248 155.072 194.942 155.196 194.636C155.617 193.593 156.053 192.555 156.488 191.517L156.489 191.516L156.489 191.515L156.489 191.514L156.49 191.514L156.49 191.513L156.49 191.512L156.491 191.511L156.491 191.511C157.168 189.896 157.846 188.28 158.471 186.645C158.917 185.48 159.287 184.285 159.657 183.09L159.657 183.09C159.868 182.408 160.079 181.726 160.304 181.049C160.78 179.617 161.264 178.186 161.81 176.78C161.933 176.464 161.864 176.458 161.692 176.445C161.676 176.443 161.66 176.442 161.643 176.441C161.624 176.439 161.605 176.437 161.586 176.434C159.282 176.128 157.013 176.155 154.865 177.18C154.394 177.405 154.063 177.358 153.751 176.967C153.433 176.567 153.599 176.276 153.88 175.909C155.559 173.723 156.602 171.233 157.402 168.606C157.486 168.331 157.572 168.057 157.658 167.782L157.658 167.782C158.178 166.126 158.696 164.476 158.682 162.716C158.671 161.384 158.342 160.188 157.426 159.073C157.225 158.828 157.04 158.572 156.856 158.316C156.306 157.553 155.764 156.801 154.82 156.407C154.343 156.208 153.872 155.993 153.4 155.778C152.91 155.555 152.42 155.331 151.923 155.126C151.544 154.969 151.167 154.811 150.789 154.653C149.3 154.03 147.811 153.407 146.292 152.869C145.37 152.542 144.415 152.308 143.46 152.074C143.025 151.968 142.591 151.862 142.16 151.747C142.076 151.724 141.992 151.698 141.909 151.671L141.908 151.671L141.908 151.671L141.908 151.671L141.908 151.671L141.908 151.671L141.908 151.671L141.907 151.671C141.84 151.649 141.774 151.628 141.707 151.609C140.725 151.329 139.868 151.377 139.201 152.324C138.909 152.74 138.507 153.078 138.086 153.433C138.003 153.503 137.918 153.574 137.834 153.647C136.248 155.211 134.733 156.772 133.223 158.339ZM169.392 130.757L169.393 130.756C169.477 130.333 169.562 129.91 169.608 129.483L169.62 129.363C169.719 128.447 169.819 127.518 169.754 126.607C169.72 126.135 169.595 125.671 169.469 125.206C169.367 124.83 169.265 124.452 169.211 124.07C168.929 122.058 168.675 120.04 168.48 118.018C168.31 116.26 168.196 114.496 168.083 112.733L168.083 112.733C168.067 112.486 168.051 112.239 168.035 111.992C167.921 110.232 167.815 108.47 167.746 106.708C167.68 105.018 167.647 103.327 167.614 101.636V101.635L167.601 100.925C167.598 100.818 167.635 100.712 167.671 100.605L167.671 100.604L167.671 100.604L167.671 100.604L167.671 100.604L167.671 100.604C167.695 100.536 167.718 100.467 167.732 100.398C167.747 100.32 167.766 100.242 167.784 100.163L167.785 100.163C167.837 99.9449 167.889 99.7259 167.87 99.5144C167.848 99.2815 167.796 99.0496 167.744 98.8183C167.673 98.5046 167.602 98.1922 167.61 97.8804C167.662 95.8145 167.755 93.7496 167.849 91.6848L167.89 90.77C167.91 90.3262 167.967 89.8824 168.034 89.4429C168.225 88.2021 168.424 86.9624 168.622 85.7228L168.762 84.8513C168.778 84.7503 168.8 84.6502 168.821 84.5501L168.833 84.4964L168.842 84.4535L168.851 84.411C168.857 84.4627 168.864 84.5144 168.871 84.566C168.887 84.677 168.903 84.7879 168.905 84.8992C168.951 87.2208 168.994 89.5425 169.037 91.8643L169.053 92.7273C169.067 93.5066 169.082 94.2859 169.097 95.0652C169.133 96.9196 169.168 98.774 169.197 100.629C169.217 101.856 169.232 103.084 169.247 104.312V104.312V104.312V104.312V104.312V104.313V104.313V104.313C169.274 106.546 169.302 108.78 169.354 111.013C169.394 112.678 169.5 114.345 169.647 116.004C169.756 117.222 169.914 118.436 170.073 119.649C170.123 120.034 170.173 120.418 170.221 120.803C170.289 121.341 170.363 121.878 170.438 122.416C170.567 123.355 170.696 124.294 170.793 125.237C170.916 126.435 171.493 127.404 172.322 128.172C172.927 128.733 173.61 129.21 174.292 129.687L174.292 129.687L174.292 129.687L174.293 129.688L174.294 129.688L174.294 129.689L174.295 129.689L174.295 129.689L174.296 129.69C174.564 129.877 174.832 130.065 175.096 130.258C175.649 130.662 176.199 131.07 176.75 131.478L176.75 131.478C178.132 132.502 179.513 133.526 180.933 134.493C182.201 135.358 183.507 136.168 184.812 136.978C185.445 137.37 186.077 137.762 186.705 138.161C187.306 138.542 187.905 138.927 188.504 139.313L188.507 139.314L188.509 139.316L188.512 139.318C189.58 140.005 190.648 140.692 191.73 141.357L191.933 141.483L191.934 141.484C193.916 142.704 195.9 143.926 197.929 145.064C198.893 145.605 199.916 146.044 200.936 146.483L200.936 146.483L200.936 146.483L200.937 146.483L200.937 146.483L200.937 146.483L200.937 146.483L200.937 146.483L200.94 146.485C201.201 146.597 201.462 146.709 201.721 146.822C201.873 146.889 202.222 146.813 202.294 146.692C202.464 146.406 202.574 146.083 202.684 145.762L202.684 145.762C202.706 145.698 202.727 145.634 202.75 145.57C203.177 144.353 203.716 143.217 204.637 142.269C205.332 141.554 205.234 141.339 204.269 140.933C204.216 140.911 204.163 140.888 204.111 140.866L204.107 140.865C203.703 140.696 203.296 140.526 202.93 140.296C202.249 139.866 201.588 139.4 200.952 138.906C200.387 138.468 199.821 138.031 199.255 137.594L199.255 137.594C197.346 136.12 195.437 134.647 193.581 133.11C191.853 131.679 190.211 130.136 188.603 128.569C188.379 128.351 188.153 128.135 187.926 127.918C186.558 126.61 185.183 125.297 184.316 123.561C184.197 123.324 184.059 123.094 183.922 122.865C183.522 122.2 183.123 121.535 183.182 120.662C183.218 120.127 183.146 119.585 183.075 119.043L183.075 119.043C183.049 118.847 183.023 118.651 183.003 118.456C182.947 117.928 182.88 117.401 182.813 116.873L182.813 116.873C182.677 115.795 182.541 114.717 182.496 113.635C182.434 112.175 182.448 110.71 182.462 109.246V109.245C182.468 108.615 182.474 107.985 182.474 107.355C182.474 107.207 182.47 107.058 182.465 106.91C182.456 106.586 182.446 106.262 182.482 105.943C182.655 104.39 182.832 102.836 183.066 101.291C183.111 100.989 183.156 100.687 183.2 100.385C183.418 98.9055 183.636 97.423 183.996 95.9777C184.311 94.7176 184.696 93.4757 185.082 92.2336C185.388 91.251 185.693 90.2682 185.963 89.2761C186.157 88.5623 186.371 87.8536 186.585 87.1449C187.12 85.3708 187.656 83.5963 187.883 81.7406C187.933 81.3361 188.035 80.9333 188.137 80.5318C188.287 79.9411 188.437 79.3536 188.416 78.7687C188.341 76.6556 187.752 74.6195 187.159 72.5869C186.274 69.5506 184.739 67.018 182.082 65.2155C180.549 64.1756 178.943 63.4141 177.041 63.6587C176.352 63.7475 175.669 63.8898 174.986 64.0321C174.657 64.1005 174.329 64.169 174 64.2315C172.131 64.5861 170.477 65.4108 168.988 66.5702C168.116 67.2488 167.265 67.9567 166.437 68.6885C165.609 69.4201 164.782 70.1601 164.028 70.9654C163.326 71.7142 162.674 72.5096 162.022 73.3044L162.022 73.3045L162.022 73.3046C161.88 73.4776 161.738 73.6506 161.595 73.823C160.475 75.1805 159.357 76.541 158.261 77.9182C157.78 78.5215 157.31 79.1328 156.839 79.744C156.128 80.6677 155.418 81.5914 154.673 82.4872C153.323 84.1119 151.922 85.6956 150.5 87.258C148.546 89.405 146.558 91.5208 144.57 93.6362C144.4 93.8165 144.205 93.9738 144.01 94.1309C143.777 94.3192 143.543 94.5072 143.356 94.7339C141.917 96.4713 140.561 98.2836 139.599 100.33C138.711 102.217 137.857 104.12 137.002 106.022L137.002 106.022L137.002 106.022L137.002 106.022L137.002 106.022L137.002 106.022L137.002 106.023L137.002 106.023L137.001 106.025C136.233 107.734 135.465 109.443 134.673 111.141C133.389 113.895 131.977 116.578 130.272 119.11L130.146 119.296C129.233 120.654 128.319 122.013 127.032 123.003C125.354 124.293 123.608 125.494 121.862 126.694L121.862 126.694L121.859 126.696C121.404 127.009 120.949 127.322 120.495 127.636C119.022 128.657 117.857 129.945 117.284 131.641C116.58 133.724 116.94 135.793 117.922 137.691C119.132 140.028 121.045 141.814 123 143.516C125.168 145.405 127.688 146.759 130.407 147.63C133.901 148.749 137.416 149.836 141.112 150.153C142.079 150.236 143.042 150.362 144.005 150.489C145.079 150.63 146.152 150.772 147.231 150.852C149.615 151.03 152.011 151.129 154.402 151.142C155.477 151.148 156.553 151.073 157.629 150.999L157.629 150.999L157.63 150.999L157.63 150.999L157.631 150.999L157.631 150.999L157.632 150.999L157.632 150.999C158.314 150.951 158.996 150.904 159.678 150.877C161.536 150.804 163.295 150.316 165.028 149.7C166.193 149.286 167.27 148.716 167.696 147.459C167.944 146.727 168.067 145.943 168.168 145.173L168.195 144.974C168.41 143.347 168.625 141.718 168.747 140.083C168.86 138.576 168.919 137.066 168.98 135.5L168.98 135.497C169.003 134.908 169.026 134.311 169.053 133.704C169.068 133.508 169.08 133.312 169.092 133.116C169.119 132.674 169.146 132.232 169.206 131.794C169.255 131.447 169.324 131.102 169.392 130.757ZM107.426 176.144C107.504 176.214 107.682 176.26 107.769 176.22C108.168 176.039 108.573 175.867 108.979 175.696L108.98 175.696C109.969 175.279 110.959 174.861 111.851 174.29C113.443 173.27 114.996 172.19 116.549 171.11L116.55 171.11L116.551 171.109C117.77 170.261 118.988 169.414 120.226 168.596C122.926 166.81 125.293 164.636 127.66 162.461L127.66 162.461L127.66 162.461L127.661 162.461L127.661 162.46L127.661 162.46L127.662 162.46L127.662 162.459C128.123 162.036 128.583 161.613 129.046 161.193C129.766 160.54 130.443 159.84 131.119 159.14L131.119 159.139L131.119 159.139L131.12 159.139L131.12 159.138C131.267 158.987 131.413 158.835 131.559 158.685C132.365 157.856 133.162 157.021 133.96 156.185C134.306 155.822 134.652 155.46 134.999 155.098C135.248 154.839 135.497 154.579 135.746 154.32L135.747 154.32C136.652 153.379 137.557 152.439 138.433 151.473C138.537 151.359 138.408 150.79 138.289 150.754C137.792 150.604 137.286 150.481 136.78 150.358L136.78 150.358L136.779 150.358C136.137 150.202 135.496 150.046 134.873 149.834L134.556 149.726L134.555 149.726C131.979 148.848 129.399 147.97 126.877 146.95C124.568 146.016 122.428 144.733 120.516 143.106C120.486 143.081 120.349 143.114 120.334 143.15C119.782 144.484 118.754 145.393 117.722 146.306L117.722 146.306L117.722 146.306L117.722 146.306L117.722 146.306C117.487 146.514 117.252 146.722 117.022 146.936C115.939 147.941 114.864 148.971 113.915 150.1C113.302 150.829 112.78 151.636 112.258 152.442C112.067 152.738 111.875 153.035 111.679 153.327C111.457 153.658 111.223 153.983 110.989 154.308C110.414 155.106 109.839 155.905 109.446 156.784C108.568 158.745 107.206 160.308 105.785 161.831C104.388 163.328 102.484 163.885 100.604 164.435L100.604 164.435L100.603 164.435L100.603 164.436C100.428 164.487 100.254 164.538 100.08 164.589C99.3899 164.795 98.6796 164.933 97.9691 165.071L97.9689 165.071L97.9687 165.071L97.9685 165.071L97.9683 165.071L97.9681 165.071L97.968 165.071L97.9678 165.071L97.9676 165.072C97.5779 165.147 97.1882 165.223 96.8016 165.31C96.7034 165.332 96.6151 165.398 96.5268 165.464C96.486 165.495 96.4451 165.525 96.4032 165.551C96.4486 165.606 96.4951 165.676 96.5416 165.746C96.6418 165.897 96.7421 166.047 96.8312 166.041C97.7387 165.977 98.4167 166.443 99.0829 166.902C99.2607 167.024 99.4376 167.146 99.6178 167.257C100.496 167.797 101.359 168.38 101.871 169.387C102.203 170.04 102.65 170.637 103.095 171.231C103.231 171.414 103.368 171.596 103.501 171.78C104.048 172.535 104.619 173.273 105.242 174.076L105.242 174.076L105.243 174.077L105.375 174.247L105.665 174.517L105.841 174.681L105.842 174.683C106.368 175.173 106.893 175.663 107.426 176.144ZM152.238 153.505C152.794 153.801 153.385 154.026 153.978 154.252C155.144 154.695 156.311 155.139 157.201 156.123C157.472 156.421 157.783 156.682 158.095 156.943C158.298 157.112 158.5 157.282 158.692 157.462C159.326 158.058 159.545 158.856 159.764 159.65L159.764 159.651C159.796 159.766 159.827 159.881 159.86 159.995C160.46 162.079 160.323 164.236 159.798 166.235L159.696 166.623C158.995 169.294 158.284 172.004 156.796 174.401C156.623 174.679 156.533 174.828 157.007 174.842C158.284 174.878 159.56 174.926 160.837 174.974L160.841 174.974C162.245 175.027 163.65 175.079 165.054 175.117C165.936 175.14 166.819 175.135 167.702 175.129C168.31 175.125 168.919 175.121 169.527 175.127C171.12 175.142 172.668 174.912 174.118 174.236C174.176 174.209 174.235 174.182 174.296 174.154C174.791 173.928 175.352 173.672 175.575 173.265C176.145 172.229 176.549 171.089 176.917 169.958C177.455 168.302 177.988 166.636 178.363 164.938C178.683 163.489 178.845 161.994 178.945 160.51C178.976 160.064 178.9 159.612 178.824 159.159L178.824 159.159C178.763 158.798 178.702 158.437 178.695 158.077C178.665 156.664 177.996 155.514 177.326 154.363L177.209 154.161C177.053 153.892 176.853 153.649 176.653 153.406C176.497 153.216 176.341 153.025 176.205 152.822C175.13 151.215 174.059 149.605 172.989 147.994C172.233 146.857 171.477 145.719 170.719 144.583C170.647 144.474 170.553 144.379 170.459 144.284L170.422 144.247L170.401 144.225C170.39 144.214 170.379 144.202 170.368 144.191C170.355 144.177 170.342 144.164 170.33 144.15C170.288 144.214 170.239 144.277 170.189 144.34C170.081 144.477 169.973 144.614 169.941 144.767C169.868 145.122 169.819 145.483 169.771 145.843L169.771 145.843L169.771 145.844L169.771 145.845L169.771 145.845L169.77 145.846L169.77 145.846L169.77 145.847C169.729 146.152 169.688 146.458 169.632 146.76C169.302 148.522 168.458 149.876 166.798 150.746C164.51 151.947 162.05 152.46 159.537 152.749C158.087 152.915 156.611 152.942 155.152 152.895C154.274 152.866 153.4 152.758 152.524 152.649C152.051 152.591 151.577 152.532 151.102 152.486C150.975 152.474 150.842 152.512 150.709 152.551C150.683 152.558 150.657 152.566 150.631 152.573C150.596 152.583 150.56 152.592 150.525 152.599C150.563 152.629 150.6 152.66 150.637 152.69C150.731 152.767 150.824 152.843 150.922 152.914C150.936 152.924 150.951 152.932 150.968 152.941L150.993 152.953L150.994 152.953L150.994 152.953C151.04 152.975 151.098 153.003 151.182 153.062C151.293 153.108 151.406 153.152 151.519 153.195C151.763 153.289 152.008 153.383 152.238 153.505ZM182.494 41.342C181.569 42.6948 181.01 44.2375 180.729 45.8593C180.442 47.5073 180.402 49.1738 180.885 50.7823C181.17 51.7319 181.493 52.6704 181.815 53.6088L181.816 53.6094L181.816 53.6096L181.816 53.6099L181.816 53.6102L181.816 53.6105L181.816 53.6107L181.816 53.611L181.816 53.6113C182.19 54.6969 182.563 55.7825 182.878 56.8849C183.072 57.566 183.513 57.8849 184 58.0564C186.298 58.8657 188.794 57.8815 190.221 55.769C190.608 55.1956 190.385 54.9603 189.991 54.5594C189.458 54.0168 188.992 53.3882 188.595 52.7366C188.003 51.7639 188.254 50.7723 188.932 49.9868C189.611 49.2006 190.63 49.0259 191.578 49.3553C192.662 49.7316 193.442 50.5601 193.997 51.5746C194.023 51.6222 194.042 51.6737 194.061 51.7253C194.069 51.7493 194.078 51.7733 194.088 51.7969C194.094 51.7839 194.1 51.7711 194.107 51.7582L194.107 51.758C194.121 51.7306 194.134 51.7032 194.144 51.6743C194.225 51.4254 194.304 51.175 194.383 50.9244L194.383 50.9239L194.383 50.9235L194.383 50.923L194.383 50.9224L194.383 50.9217L194.384 50.9208L194.384 50.9198C194.799 49.597 195.216 48.2707 196.055 47.1421C196.709 46.2624 197.413 45.3851 198.244 44.6829C198.864 44.1579 199.631 43.7927 200.383 43.4343L200.384 43.4338C200.494 43.3816 200.603 43.3295 200.712 43.2771C200.969 43.1531 201.225 43.0266 201.481 42.9L201.482 42.8998C202.559 42.3679 203.64 41.834 204.774 41.4786C204.963 41.4195 205.06 41.39 205.105 41.3762L205.105 41.3761L205.106 41.3759L205.134 41.3672C205.138 41.3659 205.14 41.3653 205.14 41.3652C205.14 41.3651 205.137 41.3656 205.134 41.3664L205.134 41.3664L205.134 41.3665C205.074 41.3798 204.69 41.4654 208.439 40.1133C213.674 38.2254 210.981 32.2785 209.431 30.9702C209.315 30.8728 209.132 30.7681 209.008 30.795C208.897 30.8191 208.755 31.0135 208.743 31.1432C208.627 32.4432 206.722 34.4606 202.195 34.1474C199.098 33.933 199.031 33.9454 198.882 33.9726C198.814 33.9851 198.728 34.0009 198.321 33.999C197.345 33.9945 193.966 34.3091 193.283 34.5022C193.035 34.5723 192.711 34.64 192.33 34.7197L192.33 34.7198L192.329 34.7198L192.329 34.7199L192.329 34.72L192.329 34.72C190.509 35.1002 187.388 35.7524 185.027 38.2254C184.765 38.5432 184.496 38.856 184.228 39.1687C183.622 39.8738 183.015 40.5789 182.494 41.342ZM194.872 54.2498C194.872 54.9073 194.74 55.5543 194.609 56.2011C194.545 56.5121 194.482 56.823 194.433 57.1351C194.426 57.1843 194.4 57.2308 194.374 57.2772C194.362 57.2988 194.35 57.3204 194.34 57.3422C194.337 57.3288 194.333 57.3154 194.33 57.302L194.324 57.2792C194.311 57.2343 194.299 57.1894 194.291 57.1438C194.231 56.8254 194.175 56.5059 194.119 56.1864C193.993 55.4639 193.866 54.7413 193.694 54.03C193.487 53.1772 193.257 52.3081 192.874 51.5259C192.432 50.6214 190.581 50.1946 189.67 50.6691C189.151 50.9397 188.901 51.5882 189.238 52.0593C189.557 52.505 189.948 52.9606 190.413 53.2259C191.176 53.6614 191.425 54.3877 191.487 55.0997C191.603 56.4385 190.198 58.3211 188.833 58.6597C187.592 58.9675 186.327 59.1816 185.063 59.3955L185.063 59.3955C184.765 59.446 184.466 59.4965 184.168 59.5482L184.125 59.5555L184.077 59.5635L184.077 59.5636C183.679 59.6293 183.362 59.6815 183.488 60.2643C183.831 61.8465 183.942 63.4404 183.655 65.0497C183.638 65.1474 183.816 65.3007 183.929 65.3975C184.073 65.5211 184.225 65.6374 184.377 65.7537L184.378 65.7539C184.657 65.9678 184.936 66.1814 185.167 66.4388C185.547 66.8619 185.9 67.308 186.254 67.7542C186.497 68.0606 186.741 68.3671 186.992 68.6663C187.058 68.7443 187.322 68.7769 187.385 68.7165C187.708 68.4083 188.022 68.0913 188.336 67.7743L188.336 67.7741L188.336 67.774L188.336 67.7738L188.337 67.7737L188.337 67.7735L188.337 67.7733L188.337 67.7732C188.705 67.4024 189.072 67.0316 189.453 66.675C190.374 65.8123 191.318 64.9734 192.274 64.1491C192.398 64.0424 192.568 63.9901 192.739 63.9378C192.818 63.9136 192.896 63.8895 192.971 63.86C192.94 63.9314 192.909 64.0032 192.879 64.075C192.796 64.2712 192.713 64.4674 192.615 64.6557C192.598 64.6886 192.549 64.7019 192.497 64.7159C192.453 64.7279 192.407 64.7404 192.377 64.7663C192.361 64.7801 192.345 64.7935 192.33 64.8067C192.146 64.9637 192.01 65.0792 192.419 65.2741C192.852 65.4801 193.252 65.7531 193.653 66.0261C193.82 66.1403 193.987 66.2544 194.157 66.3636C196.771 68.0457 199.588 68.8356 202.705 68.3244C204.468 68.0353 205.679 67.0972 206.216 65.362C206.731 63.6998 206.517 63.2162 204.929 62.5482C204.875 62.5254 204.821 62.5029 204.766 62.4803C203.929 62.1319 203.097 61.7859 202.877 60.7593C202.787 60.3371 203.568 59.8821 203.74 60.2777L203.741 60.2803L203.742 60.2818L203.743 60.2853C203.912 61.0595 204.5 61.327 205.119 61.6059C206.259 62.1189 206.398 62.0471 206.398 60.8772C206.398 59.3456 206.398 59.3456 207.742 58.8685C208.52 58.5921 208.645 58.3219 208.292 57.5659C207.758 56.4244 207.409 55.2614 207.557 53.9707C207.739 52.3802 207.891 50.7844 207.991 49.1868C208.055 48.1602 208.117 47.1096 207.97 46.1004C207.876 45.4542 207.645 44.8278 207.414 44.2015L207.414 44.2013L207.414 44.2005L207.414 44.1998C207.314 43.9309 207.215 43.6621 207.127 43.3917C206.92 42.7552 206.419 42.4995 205.767 42.7349C205.359 42.8819 204.948 43.0237 204.538 43.1656C203.395 43.5604 202.251 43.9555 201.161 44.4649C200.014 45.0012 198.852 45.6663 197.96 46.5428C197.158 47.3303 194.872 51.2971 194.872 54.2498ZM100.648 178.193C101.132 178.085 101.616 177.978 102.101 177.871C103.153 177.638 104.205 177.405 105.255 177.163C105.407 177.128 105.548 177.05 105.689 176.972C105.754 176.935 105.82 176.899 105.886 176.867C105.83 176.834 105.773 176.803 105.716 176.771C105.585 176.697 105.453 176.623 105.333 176.535C105.199 176.437 105.086 176.309 104.976 176.183L104.97 176.177C104.655 175.82 104.335 175.466 104.016 175.113C103.237 174.253 102.459 173.392 101.748 172.479C101.045 171.575 100.485 170.551 99.934 169.541L99.9204 169.516C99.6487 169.019 99.3402 168.808 98.8176 168.991C96.5955 169.767 94.295 170.19 91.9946 170.614L91.9944 170.614C90.7943 170.835 89.5943 171.056 88.4054 171.327C86.4567 171.771 76.6472 173.458 75.7929 173.519C75.3771 173.549 74.9614 173.591 74.5457 173.634L74.545 173.634C73.7365 173.716 72.9284 173.798 72.121 173.789C70.0577 173.766 68.0351 173.988 66.0143 174.38C65.3773 174.504 64.7311 174.582 64.0851 174.66L64.0847 174.66C63.347 174.75 62.6095 174.839 61.8861 174.996C59.5569 175.501 58.7765 177.489 59.3766 179.432C59.4918 179.805 59.9035 180.226 60.273 180.357C61.958 180.953 63.7218 181.108 65.5046 181.122C66.4228 181.129 67.3408 181.171 68.2587 181.214H68.259H68.2592H68.2594H68.2597C68.6098 181.23 68.9599 181.247 69.31 181.261C70.6283 181.315 71.9466 181.369 73.2649 181.424H73.2654C74.2893 181.467 75.3132 181.51 76.3372 181.552C76.41 181.555 76.4829 181.554 76.5559 181.553C76.6289 181.551 76.7019 181.55 76.7747 181.553C77.1345 181.568 77.4948 181.593 77.8552 181.617C78.6436 181.671 79.4319 181.725 80.214 181.676C81.4398 181.601 82.6612 181.456 83.8827 181.311L83.8832 181.311L83.8837 181.311L83.8842 181.311L83.8847 181.311L83.8852 181.311L83.8857 181.311L83.8862 181.311L83.8895 181.31L83.8928 181.31L83.896 181.309L83.8993 181.309L83.9026 181.309C84.465 181.242 85.0273 181.175 85.5901 181.115C85.9384 181.078 86.2878 181.048 86.637 181.018C87.2705 180.963 87.9038 180.908 88.5311 180.813L88.8476 180.765L88.848 180.765L88.8485 180.765C90.4508 180.522 92.0561 180.278 93.6368 179.929C94.8649 179.658 96.0845 179.349 97.3306 179.032C98.2428 178.8 99.1692 178.565 100.124 178.338C100.178 178.323 100.232 178.307 100.286 178.291L100.289 178.29C100.408 178.255 100.527 178.22 100.648 178.193ZM156.236 211.977C156.991 210.893 157.705 209.779 158.398 208.653C159.027 207.63 159.616 206.582 160.204 205.534C160.73 204.596 161.276 203.67 161.823 202.743L161.823 202.743L161.823 202.743L161.823 202.743L161.823 202.743L161.823 202.743L161.823 202.743L161.823 202.742C163.092 200.592 164.36 198.441 165.379 196.147C165.965 194.825 166.644 193.545 167.324 192.265C167.647 191.654 167.971 191.044 168.285 190.429C168.433 190.139 168.584 189.851 168.734 189.563L168.734 189.562L168.734 189.562L168.735 189.562L168.735 189.562L168.735 189.562L168.735 189.561L168.735 189.561C169.148 188.77 169.561 187.979 169.916 187.163C170.185 186.545 170.42 185.912 170.655 185.279C171.016 184.306 171.377 183.334 171.857 182.423C172.628 180.96 173.139 179.415 173.651 177.869C173.817 177.367 173.983 176.865 174.158 176.365C174.185 176.288 174.202 176.207 174.219 176.126L174.22 176.126L174.226 176.096L174.236 176.052C174.239 176.039 174.242 176.026 174.245 176.013C174.203 176.022 174.162 176.029 174.12 176.036C174.073 176.044 174.026 176.052 173.98 176.061C173.936 176.07 173.893 176.08 173.851 176.093C173.675 176.145 173.5 176.209 173.325 176.272L173.325 176.272C172.963 176.404 172.601 176.536 172.23 176.565C170.846 176.674 169.454 176.721 168.065 176.72C167.206 176.72 166.347 176.686 165.488 176.652H165.488H165.488H165.487H165.487H165.487H165.487H165.486C164.932 176.63 164.378 176.609 163.824 176.596C163.721 176.593 163.56 176.723 163.518 176.827L163.366 177.212L163.366 177.212L163.366 177.212L163.366 177.212L163.366 177.213L163.366 177.213L163.365 177.213L163.365 177.213C163.019 178.088 162.671 178.964 162.368 179.854C161.613 182.073 160.881 184.3 160.157 186.53C159.238 189.36 158.107 192.092 156.861 194.803C155.706 197.316 154.845 199.991 154.298 202.746C154.043 204.031 153.665 205.294 153.288 206.555L153.287 206.557C153.196 206.861 153.106 207.164 153.017 207.467C152.737 208.421 152.428 209.366 152.12 210.311L152.119 210.312C152.008 210.653 151.896 210.994 151.786 211.336C151.534 212.119 151.756 212.851 152.372 212.946C153.058 213.052 153.766 213.013 154.538 212.965C155.239 212.867 155.84 212.545 156.236 211.977ZM55.3962 185.051C56.1577 183.799 56.9422 182.665 58.4903 182.327C59.065 182.201 59.0968 181.901 58.7159 181.42C58.6323 181.315 58.5441 181.21 58.4554 181.104C58.1372 180.725 57.8128 180.338 57.6755 179.899C57.527 179.424 57.556 178.887 57.5844 178.36L57.5844 178.359C57.5918 178.224 57.5991 178.089 57.6033 177.955C57.6537 176.362 58.1037 175.002 59.6815 174.228C60.1496 173.998 60.4307 173.653 59.9611 172.975C58.903 171.449 57.5007 170.368 55.9546 169.433C55.3485 169.066 54.7905 169.284 54.5495 169.924C54.4448 170.203 54.3389 170.481 54.233 170.759L54.2329 170.759C53.8981 171.638 53.5632 172.517 53.2662 173.408C52.9401 174.387 52.6299 175.371 52.3197 176.356C51.9923 177.395 51.6648 178.434 51.3188 179.466C51.033 180.319 50.7814 181.181 50.5297 182.044C50.075 183.603 49.62 185.163 48.9623 186.668C47.4479 190.134 46.2239 193.719 45.6447 197.485C45.614 197.684 45.6567 198.026 45.7745 198.086C45.9537 198.177 46.2598 198.143 46.4558 198.048C46.7826 197.888 47.1258 197.688 47.3546 197.415C48.0728 196.558 48.7408 195.658 49.4283 194.629C49.9975 193.718 50.5689 192.809 51.1402 191.899L51.1408 191.898C52.5705 189.623 54.0003 187.347 55.3962 185.051ZM162.596 214.574C162.459 214.539 162.32 214.505 162.182 214.471C160.913 214.163 159.653 213.856 158.918 212.545C158.572 211.927 158.268 211.974 157.918 212.653C157.615 213.242 157.24 213.759 156.641 214.066C156.322 214.23 155.984 214.362 155.646 214.482C153.966 215.077 152.333 215.152 150.86 213.948C150.143 213.362 149.909 213.415 149.349 214.146C148.443 215.327 147.979 216.704 147.516 218.075L147.477 218.192C146.979 219.669 147.249 219.978 148.819 219.978H176.97C177.029 219.978 177.091 219.983 177.152 219.988C177.293 220 177.434 220.012 177.546 219.961C177.691 219.894 177.884 219.579 177.859 219.552C177.756 219.439 177.655 219.319 177.554 219.199C177.244 218.831 176.93 218.459 176.532 218.257C175.737 217.853 174.847 217.615 173.976 217.394C170.759 216.58 167.534 215.802 164.166 215.01C164.071 214.983 163.975 214.956 163.88 214.929L163.675 214.871C163.317 214.768 162.958 214.666 162.596 214.574ZM217.651 160.483C217.684 160.606 217.832 160.699 217.979 160.791L217.98 160.791L217.98 160.792L217.98 160.792L217.98 160.792L217.98 160.792C218.048 160.834 218.116 160.877 218.172 160.922C218.209 160.87 218.255 160.818 218.302 160.766C218.402 160.653 218.502 160.541 218.508 160.423C218.516 160.266 218.526 160.109 218.537 159.95C218.578 159.335 218.619 158.713 218.498 158.128C218.26 156.984 217.886 155.859 217.462 154.768C217.356 154.495 217.482 154.365 217.601 154.243C217.687 154.155 217.769 154.07 217.756 153.939C217.775 153.951 217.794 153.963 217.814 153.975C217.842 153.991 217.87 154.008 217.898 154.024L217.952 154.053L217.996 154.077C218.182 154.18 218.368 154.282 218.491 154.435C218.599 154.57 218.649 154.75 218.699 154.932C218.729 155.04 218.759 155.149 218.802 155.249L218.846 155.352L218.909 155.502L218.976 155.66L218.978 155.664L218.981 155.672C219.271 156.359 219.562 157.047 219.898 157.712C219.957 157.83 220.137 157.887 220.316 157.945C220.399 157.971 220.481 157.997 220.552 158.03C220.582 157.963 220.621 157.896 220.659 157.828C220.743 157.682 220.828 157.535 220.826 157.389C220.82 156.727 220.767 156.064 220.689 155.406C220.682 155.352 220.676 155.298 220.67 155.244C220.665 155.194 220.66 155.143 220.654 155.093C220.605 154.619 220.554 154.136 220.371 153.716C219.814 152.437 219.223 151.163 218.513 149.966C218.064 149.208 217.453 148.499 216.774 147.938C216.172 147.44 215.478 147.049 214.788 146.66L214.787 146.66L214.787 146.659L214.786 146.659L214.786 146.659C214.601 146.555 214.418 146.451 214.236 146.346C213.121 145.7 211.992 145.079 210.86 144.465C210.847 144.458 210.835 144.451 210.822 144.444C210.69 144.369 210.534 144.28 210.394 144.584C210.132 145.156 209.854 145.722 209.576 146.287C209.142 147.17 208.709 148.052 208.337 148.96C208.329 148.979 208.32 149 208.311 149.021C208.165 149.368 207.907 149.98 208.697 150.319C209.545 150.682 210.378 151.204 211.047 151.838C213.014 153.701 213.902 156.192 214.783 158.666L214.852 158.859C215.022 159.335 215.143 159.829 215.265 160.322C215.322 160.556 215.38 160.791 215.443 161.023L215.452 161.055C215.456 161.07 215.46 161.084 215.465 161.099C215.466 161.105 215.468 161.112 215.47 161.118C215.486 161.17 215.503 161.222 215.52 161.273L215.52 161.274L215.52 161.274L215.52 161.274L215.52 161.274C215.532 161.313 215.545 161.352 215.557 161.39C215.598 161.36 215.646 161.333 215.694 161.305C215.798 161.246 215.902 161.187 215.938 161.099C216.309 160.207 216.421 159.31 216.144 158.34C215.924 157.57 215.845 156.754 215.767 155.951L215.76 155.878C215.75 155.779 215.887 155.667 216.024 155.554C216.087 155.502 216.15 155.45 216.199 155.4C216.222 155.43 216.247 155.459 216.273 155.488L216.308 155.527C216.391 155.618 216.474 155.709 216.504 155.816C216.566 156.041 216.624 156.267 216.683 156.498L216.684 156.498L216.684 156.498C216.791 156.917 216.902 157.349 217.049 157.811C217.099 158.044 217.149 158.277 217.198 158.511C217.337 159.171 217.476 159.832 217.651 160.483ZM208.679 145.58C208.784 145.328 208.909 145.086 209.034 144.843C209.338 144.257 209.641 143.67 209.658 142.93C209.673 142.253 209.55 141.89 209.005 141.557C208.426 141.204 207.768 140.992 207.253 141.398C206.084 142.319 205.006 143.39 204.38 144.762C203.987 145.625 203.703 146.54 203.419 147.454L203.419 147.454C203.322 147.767 203.225 148.081 203.124 148.392C203.066 148.569 203.093 148.789 203.131 148.98C203.357 150.121 204.208 150.685 205.155 151.163C205.655 151.415 206.025 151.29 206.25 150.796C206.403 150.459 206.554 150.12 206.707 149.779C207.026 149.066 207.35 148.341 207.712 147.583C207.812 147.378 207.915 147.175 208.018 146.971C208.25 146.512 208.483 146.054 208.679 145.58ZM44.0418 197.086C44.5636 195.842 45.0593 194.583 45.4774 193.302C45.7569 192.445 46.0035 191.577 46.25 190.71C46.4733 189.924 46.6965 189.138 46.9443 188.36C47.3333 187.14 47.7412 185.925 48.1491 184.71L48.1492 184.71L48.1494 184.709C48.5306 183.574 48.9119 182.439 49.2776 181.299C49.9624 179.164 50.6304 177.023 51.2984 174.883L51.3009 174.875C51.6002 173.916 51.8995 172.957 52.2003 171.998C52.2798 171.745 52.3605 171.492 52.4411 171.239C52.6553 170.567 52.8695 169.896 53.0615 169.218C53.09 169.117 53.0321 168.992 52.9741 168.867C52.9473 168.809 52.9205 168.751 52.9023 168.696C52.843 168.735 52.7743 168.77 52.7057 168.805C52.5573 168.88 52.4089 168.955 52.3547 169.074C51.8411 170.198 51.3392 171.33 50.8959 172.483C50.488 173.545 50.1238 174.624 49.7598 175.702L49.7597 175.702C49.6988 175.883 49.6378 176.063 49.5767 176.243L49.4782 176.534L49.3729 176.843C48.9908 177.967 48.6085 179.09 48.2683 180.226C47.9161 181.402 47.5823 182.584 47.2485 183.766L47.2485 183.766L47.2483 183.766C47.0039 184.632 46.7595 185.497 46.5079 186.36C46.4155 186.677 46.324 186.994 46.2325 187.311C45.8477 188.644 45.4628 189.978 45.0146 191.289C44.7354 192.106 44.4402 192.918 44.1439 193.732C43.7302 194.869 43.3143 196.013 42.9366 197.186C43.4843 197.909 43.6937 197.915 44.0418 197.086ZM167.74 222.68C168.071 222.658 168.403 222.633 168.734 222.609C169.465 222.555 170.196 222.501 170.928 222.465C171.894 222.418 172.86 222.376 173.826 222.333H173.826L173.831 222.333C175.107 222.278 176.382 222.222 177.657 222.155C177.757 222.15 177.853 222.049 177.949 221.949L177.963 221.933L177.992 221.903L178.01 221.886L178.02 221.875C178.041 221.855 178.062 221.836 178.083 221.818C178.044 221.795 178.006 221.769 177.968 221.744L177.968 221.744C177.88 221.684 177.793 221.625 177.696 221.592C177.62 221.566 177.534 221.573 177.448 221.579C177.427 221.581 177.406 221.582 177.385 221.583L177.36 221.584C177.351 221.585 177.343 221.585 177.334 221.585H148.331C148.285 221.585 148.235 221.579 148.185 221.573C148.075 221.56 147.964 221.548 147.903 221.597C147.695 221.764 147.508 221.979 147.382 222.212C147.356 222.261 147.607 222.556 147.764 222.591C148.195 222.687 148.643 222.747 149.084 222.747C155.278 222.756 161.472 222.753 167.74 222.68ZM213.038 223.546C211.868 224.017 210.699 224.477 209.533 224.935L209.533 224.936C207.314 225.808 205.108 226.676 202.931 227.612C201.444 228.251 199.954 228.35 198.405 228.304C198.274 228.3 198.143 228.27 198.012 228.241L198.012 228.241C197.871 228.209 197.731 228.177 197.59 228.177C197.477 228.178 197.363 228.24 197.25 228.303C197.199 228.331 197.148 228.359 197.097 228.381C197.107 228.398 197.117 228.414 197.127 228.431C197.142 228.458 197.157 228.485 197.172 228.512C197.226 228.61 197.279 228.708 197.358 228.778C197.582 228.979 197.815 229.184 198.079 229.322C200.086 230.373 201.246 233.243 200.537 235.396C200.188 236.453 199.767 237.575 199.062 238.398C198.488 239.067 197.488 239.508 196.596 239.74C195.187 240.106 193.717 240.117 192.296 239.602C191.054 239.152 190.162 238.318 189.505 237.192C187.907 234.455 188.563 232.08 190.263 229.87C190.486 229.58 190.845 229.397 191.208 229.213C191.411 229.11 191.614 229.006 191.795 228.884C191.924 228.796 192.023 228.667 192.123 228.537C192.148 228.506 192.172 228.474 192.197 228.442C192.212 228.424 192.227 228.405 192.243 228.387L192.262 228.364C192.182 228.345 192.102 228.321 192.023 228.297C191.84 228.244 191.657 228.19 191.472 228.182C191.345 228.176 191.216 228.209 191.087 228.242L191.087 228.242L191.087 228.242C190.967 228.273 190.847 228.304 190.728 228.304L186.189 228.306C175.956 228.313 165.723 228.319 155.49 228.303C153.017 228.299 150.544 228.262 148.071 228.225C146.616 228.203 145.161 228.182 143.707 228.167C142.631 228.156 141.556 228.159 140.481 228.161C139.991 228.163 139.502 228.164 139.012 228.164C138.907 228.164 138.802 228.164 138.696 228.163C138.404 228.161 138.112 228.16 137.82 228.171C137.759 228.173 137.7 228.215 137.641 228.256C137.629 228.265 137.617 228.273 137.605 228.281C137.598 228.286 137.591 228.29 137.584 228.294C137.576 228.3 137.567 228.305 137.559 228.31C137.585 228.328 137.611 228.347 137.637 228.366C137.693 228.407 137.749 228.448 137.808 228.485C138.053 228.637 138.311 228.778 138.568 228.918C139.121 229.22 139.674 229.522 140.108 229.946C143.076 232.842 142.118 238.567 137.677 239.714C134.084 240.643 130.909 239.448 129.843 235.181C129.185 232.551 130.943 229.415 133.603 228.593C133.718 228.557 133.817 228.471 133.916 228.384C133.962 228.344 134.009 228.303 134.056 228.268C134.007 228.242 133.959 228.208 133.91 228.174C133.805 228.102 133.7 228.03 133.595 228.029C130.089 228.015 126.804 226.996 123.582 225.777C119.254 224.14 115.046 222.231 111.15 219.712L111.076 219.664C110.356 219.199 109.614 218.72 109.36 217.748C108.884 215.929 109.804 214.526 111.502 214.065C113.311 213.574 115.045 214.091 116.753 214.639C119.718 215.59 122.681 216.548 125.643 217.505C127.29 218.038 128.937 218.57 130.584 219.101L130.799 219.17C131.693 219.459 132.587 219.747 133.489 220.01C133.819 220.107 134.175 220.156 134.52 220.157C136.007 220.163 137.494 220.163 138.981 220.164C140.461 220.165 141.941 220.165 143.421 220.171C143.64 220.172 144.017 220.233 144.049 220.344C144.118 220.583 144.117 220.843 144.117 221.102C144.116 221.204 144.116 221.305 144.12 221.405C144.098 221.398 144.076 221.388 144.054 221.378C144.007 221.356 143.959 221.334 143.914 221.339C143.747 221.354 143.58 221.374 143.413 221.395L143.412 221.395C143.163 221.426 142.914 221.456 142.664 221.469C141.796 221.514 140.929 221.554 140.061 221.595C138.902 221.648 137.742 221.702 136.584 221.767C134.533 221.882 132.599 221.304 130.683 220.732L130.665 220.726C129.177 220.282 127.709 219.775 126.24 219.269L126.236 219.267C125.407 218.981 124.579 218.696 123.746 218.421C122.705 218.077 121.661 217.742 120.616 217.406L120.616 217.406L120.615 217.406L120.614 217.405L120.613 217.405L120.612 217.405L120.611 217.404L120.61 217.404C119.404 217.017 118.198 216.629 116.996 216.229C116.692 216.128 116.396 215.993 116.101 215.858C115.63 215.643 115.162 215.43 114.67 215.357C113.765 215.223 112.797 215.295 111.895 215.473C111.542 215.543 111.148 216.104 111.036 216.512C110.888 217.058 110.989 217.595 111.627 218.001C114.59 219.884 117.712 221.445 120.919 222.862C123.833 224.149 126.841 225.153 129.913 225.971C130.406 226.102 130.939 226.112 131.455 226.122C132.632 226.144 133.809 226.159 134.986 226.173C136.975 226.198 138.964 226.223 140.951 226.283C143.152 226.351 145.351 226.457 147.551 226.564C148.574 226.614 149.596 226.663 150.619 226.709C151.527 226.75 152.434 226.789 153.341 226.828C154.655 226.885 155.969 226.942 157.283 227.002C157.567 227.015 157.851 227.039 158.134 227.063C158.634 227.104 159.132 227.146 159.63 227.13C160.066 227.116 160.5 227.056 160.934 226.995L160.935 226.995L160.935 226.995C161.311 226.943 161.687 226.891 162.064 226.869C162.319 226.854 162.576 226.891 162.834 226.929C163.043 226.96 163.253 226.991 163.462 226.994C163.713 226.997 163.964 227.001 164.216 227.005H164.217H164.217C165.376 227.024 166.536 227.042 167.692 226.987C168.691 226.94 169.687 226.861 170.684 226.782C171.645 226.707 172.606 226.631 173.568 226.583C173.854 226.569 174.143 226.64 174.432 226.711C174.687 226.773 174.942 226.836 175.197 226.842C176.948 226.877 178.699 226.874 180.45 226.85C182.157 226.826 183.864 226.781 185.569 226.7C185.907 226.683 186.247 226.625 186.585 226.566L186.586 226.566C187.087 226.48 187.586 226.393 188.072 226.446C190.023 226.658 191.979 226.711 193.934 226.765H193.934H193.935H193.935H193.935H193.936H193.936H193.936C195.278 226.802 196.619 226.839 197.957 226.927C200.373 227.086 202.513 226.508 204.633 225.642C207.501 224.47 210.346 223.228 213.137 221.885C214.883 221.045 216.548 220.033 218.207 219.025L218.207 219.025L218.51 218.841C219.568 218.198 220.375 217.292 220.707 216.047C220.874 215.419 220.525 214.939 219.895 214.925C217.942 214.882 216.159 215.56 214.386 216.242C211.808 217.235 209.241 218.256 206.682 219.296C205.647 219.717 204.62 220.158 203.592 220.598C202.824 220.928 202.055 221.258 201.283 221.579C201.014 221.691 200.703 221.755 200.411 221.756C197.973 221.766 195.535 221.765 193.096 221.764H193.086C192.415 221.764 191.744 221.764 191.073 221.764C190.401 221.764 189.73 221.764 189.058 221.764C187.241 221.764 185.424 221.765 183.606 221.762C182.985 221.761 182.363 221.74 181.741 221.717C181.702 221.715 181.637 221.616 181.633 221.559C181.631 221.532 181.63 221.505 181.63 221.478C181.63 221.424 181.632 221.37 181.634 221.316C181.638 221.202 181.642 221.088 181.622 220.978C181.538 220.512 181.738 220.441 182.167 220.443C185.231 220.464 188.296 220.473 191.36 220.449C191.665 220.446 191.97 220.444 192.275 220.442H192.276C194.869 220.423 197.464 220.404 200.052 220.272C200.873 220.23 201.7 219.873 202.486 219.533L202.63 219.471L202.687 219.447C207.172 217.523 211.703 215.718 216.372 214.285C217.217 214.026 218.118 213.928 219.01 213.831C219.178 213.813 219.347 213.795 219.514 213.776C220.122 213.705 220.767 213.661 221.357 213.786C222.293 213.985 222.682 214.884 222.396 215.823C221.875 217.53 220.835 218.828 219.321 219.75C218.245 220.406 217.166 221.055 216.08 221.709L216.069 221.716L216.068 221.716L216.068 221.716L216.067 221.717L216.066 221.718C215.062 222.321 214.054 222.928 213.038 223.546ZM198.118 231.437C196.413 229.581 194.442 229.24 192.093 230.597C190.735 231.382 190.139 233.227 190.253 234.396C190.376 235.655 191.006 236.699 191.967 237.517C193.12 238.497 194.469 238.499 195.857 238.2C198.942 237.537 199.868 233.531 198.118 231.437ZM131.574 233.639L131.573 233.706C131.572 233.761 131.571 233.817 131.57 233.872V233.872C131.565 234.159 131.56 234.447 131.579 234.733C131.735 237.09 134.472 238.921 136.885 238.228C138.602 237.734 139.593 236.709 139.944 234.907C140.482 232.145 138.766 230.154 136.396 229.811C134.055 229.473 132.128 230.765 131.575 233.474C131.575 233.529 131.575 233.584 131.574 233.639ZM150.408 241.835L155.756 241.835H182.681C183.946 241.835 185.211 241.835 186.475 241.836C192.488 241.837 198.5 241.838 204.513 241.817C204.905 241.815 205.337 241.589 205.661 241.367C205.747 241.307 205.563 240.833 205.384 240.63C205.262 240.492 204.932 240.443 204.696 240.442C185.534 240.437 166.372 240.436 147.209 240.434H147.014C139.486 240.434 131.957 240.433 124.429 240.433C124.151 240.433 123.873 240.414 123.594 240.395H123.594H123.594H123.593H123.593H123.593H123.592C123.493 240.388 123.393 240.382 123.293 240.376C122.831 240.349 122.232 240.964 122.423 241.316C122.697 241.823 123.259 241.836 123.809 241.836C132.651 241.835 141.493 241.835 150.377 241.835H150.382H150.387H150.393H150.398H150.403H150.408ZM102.202 242.196L98.5704 242.196H98.5644H98.5584H98.5524H98.5465H98.5405C93.1843 242.196 87.8675 242.197 82.5507 242.194C82.4948 242.194 82.4381 242.196 82.3814 242.198C82.0227 242.209 81.6649 242.221 81.5219 241.754C81.3562 241.213 81.5834 240.82 82.1869 240.75C82.3013 240.736 82.4181 240.74 82.5349 240.743H82.5353C82.5889 240.745 82.6426 240.747 82.696 240.747L88.3258 240.747C97.7547 240.747 107.184 240.747 116.613 240.745L116.669 240.745L116.705 240.744C117.195 240.742 117.657 240.739 117.637 241.4C117.619 241.947 117.295 242.196 116.54 242.196C112.885 242.196 109.23 242.196 105.542 242.196H105.532H105.522H105.512H105.502H105.492H102.202ZM229.17 242.198L232.962 242.198L235.406 242.199H235.413H235.421H235.428H235.435C238.54 242.199 241.609 242.2 244.678 242.193C244.998 242.192 245.322 242.128 245.633 242.055C245.719 242.035 245.805 241.885 245.826 241.784C245.983 241.004 245.73 240.75 244.816 240.75L210.906 240.749C210.853 240.749 210.799 240.747 210.745 240.745H210.745C210.628 240.74 210.51 240.735 210.398 240.754C209.775 240.859 209.553 241.291 209.8 241.814C209.99 242.215 210.341 242.207 210.694 242.199C210.743 242.198 210.792 242.197 210.841 242.197C216.875 242.199 222.909 242.199 228.983 242.198H228.987H228.992H229.17ZM202.76 48.6804C202.887 48.6675 203.484 48.7603 204.219 48.8747L204.219 48.8747C205.224 49.0312 206.489 49.228 207.168 49.2499C207.847 49.2717 207.202 49.9995 207.09 50.0042C205.591 50.0679 202.341 49.0778 202.76 48.6804ZM204.95 54.4212C204.315 54.1807 204.619 52.2354 205.248 52.2354C205.87 52.2354 205.57 54.6558 204.95 54.4212ZM195.801 232.789C196.351 234.034 196.313 234.544 195.659 235.221C195.213 235.684 194.404 235.762 193.897 235.392C193.355 234.997 193.104 234.063 193.365 233.415C193.825 232.275 194.835 231.997 195.801 232.789ZM136.995 232.884C136.142 232.095 135.293 232.139 134.249 233.162C133.869 234.041 134.055 234.974 135.464 235.222C136.223 235.356 136.673 235.132 137.092 234.678C137.528 234.205 137.403 233.262 136.995 232.884Z" fill="#00160A"/>
<path fill-rule="evenodd" clip-rule="evenodd" d="M186.494 74.2541C185.225 73.8818 184.924 71.9581 183.645 71.6258C182.379 71.2971 181.163 72.7961 179.901 72.4538C179.042 72.221 178.641 71.2734 178.166 70.522C177.704 69.7909 176.73 69.1309 176.034 69.6028L175.977 69.6448C175.013 70.4054 173.566 69.9249 172.594 69.1727C171.622 68.4206 170.798 67.4067 169.632 67.0197C170.244 66.4153 171.305 66.8539 171.898 67.4775C172.491 68.1012 172.974 68.9228 173.798 69.1723C175.06 69.5545 176.482 68.3823 177.673 68.9479C178.414 69.2996 178.715 70.1683 179.159 70.8579C179.602 71.5475 180.568 72.1255 181.197 71.6004C182.726 70.3262 185.457 71.1339 186.046 73.0344C186.217 73.5856 186.972 74.3943 186.494 74.2541Z" fill="#E7EAEE"/>
<path fill-rule="evenodd" clip-rule="evenodd" d="M110.826 218.692C114.35 220.768 125.39 226.884 133.483 227.087L200.421 227.297C200.421 227.297 235.618 214.92 209.884 219.59C208.428 219.854 204.257 222.349 197.55 222.893C185.29 223.886 133.483 223.251 133.483 223.251C133.483 223.251 109.898 218.146 110.826 218.692Z" fill="#E7EAEE"/>
<path fill-rule="evenodd" clip-rule="evenodd" d="M53.3387 177.513C53.4211 177.421 53.5212 177.356 53.5832 177.382C54.2881 177.674 54.6947 177.42 54.9089 176.724C54.9444 176.608 55.1254 176.537 55.2392 176.445C55.3439 176.585 55.5366 176.724 55.537 176.864C55.5385 177.328 55.74 177.547 56.1811 177.685C56.3692 177.743 56.4805 178.044 56.6267 178.235C56.4794 178.269 56.2574 178.257 56.2007 178.347C56.0855 178.53 56.0252 178.766 56.0078 178.985C55.993 179.172 56.0864 179.364 56.1028 179.556C56.1242 179.808 56.0837 179.993 55.7865 179.739C55.1931 179.232 54.6781 179.422 54.1712 179.901C54.0483 180.017 53.8321 180.035 53.6588 180.098C53.6905 179.941 53.6999 179.774 53.7576 179.627C54.06 178.853 53.8511 178.188 53.3387 177.513Z" fill="#FFB61D"/>
<ellipse cx="198.741" cy="59.1805" rx="2.55733" ry="2.55718" fill="#FFB61D"/>
<path fill-rule="evenodd" clip-rule="evenodd" d="M162.15 81.9418L162.444 82.3955L162.541 82.5421C163.158 83.4461 164.094 84.3348 165.135 84.0714C167.907 83.3703 171.059 84.594 172.63 86.9808C173.407 88.1609 175.133 87.9295 176.543 87.6272L176.729 87.5866C178.144 87.2729 180.1 87.4205 180.458 88.7913L180.476 88.8702C180.641 89.6594 181.635 89.8994 182.453 89.8786L182.706 89.8693C184.763 89.8693 185.032 91.0003 185.032 90.884C185.032 90.884 180.511 90.5414 179.559 89.0079L179.501 88.9102C178.895 87.8488 177.365 88.0216 176.168 88.3825L175.838 88.4855L175.673 88.5335C174.504 88.8609 173.086 88.9795 172.499 87.971C171.153 85.6572 168.35 84.2823 165.695 84.6343C165.011 84.7249 164.303 84.9169 163.649 84.7002C162.084 84.182 161.879 81.7654 160.339 81.1764C158.396 80.4331 156.515 83.2573 154.504 82.7241C155.727 81.7911 157.083 81.0324 158.518 80.478C158.999 80.2921 159.51 80.1268 160.022 80.1888C160.97 80.3037 161.606 81.1186 162.15 81.9418ZM186.839 84.7299C186.645 85.3272 186.502 85.8578 186.407 86.3079C186.21 85.0105 184.921 83.8109 183.705 84.231L183.635 84.2571C182.864 84.5644 182.046 83.9264 181.548 83.2628L181.428 83.1013L181.248 82.8542C180.845 82.3033 180.411 81.76 179.765 81.6032C178.584 81.3164 177.542 82.4917 176.335 82.632C173.542 82.9566 172.146 77.9568 169.404 78.5772C168.804 78.7129 168.286 79.1236 167.677 79.2069C165.995 79.4365 165.093 77.2986 163.676 76.3649C162.609 75.6622 161.104 75.7048 160.079 76.4665C160.131 75.2456 161.792 74.7076 162.925 75.167C164.059 75.6263 164.837 76.6591 165.778 77.4396C166.696 78.2007 168.058 78.7234 169.057 78.1041L169.133 78.0542C170.335 77.2221 171.944 78.2776 172.883 79.3984L173.224 79.8068C174.081 80.8268 175.06 81.8865 176.345 81.7887C177.525 81.6988 178.529 80.5997 179.699 80.7755C181.404 81.0316 182.101 83.7794 183.815 83.5934C184.917 83.4739 186.063 83.8438 186.887 84.5849L186.839 84.7299ZM187.724 78.9807C187.449 79.3663 187.173 79.676 186.896 79.9099L186.804 79.985L186.574 79.8202C185.452 79.0238 184.228 78.2487 182.865 78.2808C182.367 78.2926 181.857 78.4128 181.379 78.2725C180.111 77.9002 179.81 75.9765 178.53 75.6442C177.264 75.3155 176.048 76.8145 174.786 76.4722C173.927 76.2394 173.527 75.2918 173.051 74.5404C172.589 73.8093 171.615 73.1493 170.92 73.6212L170.862 73.6632C169.898 74.4238 168.451 73.9433 167.479 73.1911C166.507 72.439 165.684 71.4251 164.517 71.0382C165.129 70.4338 166.191 70.8723 166.784 71.496C167.377 72.1196 167.859 72.9413 168.683 73.1907C169.945 73.573 171.367 72.4008 172.558 72.9663C173.299 73.318 173.601 74.1868 174.044 74.8763C174.488 75.5659 175.453 76.1439 176.083 75.6189C177.611 74.3446 180.343 75.1524 180.931 77.0528C181.102 77.6041 181.837 77.7324 182.403 77.6216C182.97 77.5109 183.552 77.2638 184.103 77.4373C184.804 77.6579 185.163 78.4724 185.837 78.762C186.539 79.0632 187.379 78.6802 187.848 78.0738L187.896 78.0103C188.273 77.4811 188.096 78.4596 187.724 78.9807Z" fill="#FFB61D"/>
<path fill-rule="evenodd" clip-rule="evenodd" d="M173.015 93.474L173.226 93.536C173.51 93.6225 173.723 93.7502 173.972 93.9606L174.095 94.0687L174.251 94.2108C174.327 94.2796 174.386 94.3312 174.446 94.3808C174.86 94.7202 175.329 94.9308 176.112 95.0551C176.637 95.1384 177.006 95.0549 177.645 94.7578L177.874 94.648C178.905 94.1506 179.505 94.0119 180.471 94.2341C181.297 94.4239 181.676 94.7435 181.984 95.3448L182.062 95.5043C182.21 95.8124 182.686 96.097 183.062 96.3217C183.343 96.49 183.569 96.6247 183.557 96.7104C183.53 96.9103 181.787 96.5871 181.44 95.8953L181.365 95.7402C181.14 95.2756 180.934 95.0902 180.307 94.9462C179.573 94.7772 179.127 94.8656 178.306 95.2515L178.076 95.3617C177.244 95.7618 176.734 95.8936 175.997 95.7766C175.087 95.632 174.497 95.3674 173.983 94.9458C173.947 94.9165 173.912 94.8871 173.876 94.8555L173.57 94.5797C173.356 94.3887 173.21 94.2949 173.013 94.2348L172.892 94.1983C172.382 94.0489 171.215 94.4365 170.365 94.7189C169.831 94.8961 169.422 95.0319 169.378 94.968C169.282 94.8302 171.999 93.201 173.015 93.474ZM172.89 99.0264L173.086 99.0809C173.349 99.1569 173.547 99.2691 173.777 99.454L173.891 99.549L174.036 99.6739C174.106 99.7343 174.161 99.7797 174.217 99.8232C174.601 100.122 175.036 100.307 175.762 100.416C176.249 100.489 176.592 100.416 177.183 100.155L177.396 100.058C178.352 99.6209 178.908 99.4991 179.805 99.6943C180.57 99.8611 180.922 100.142 181.208 100.67L181.28 100.811C181.417 101.081 181.858 101.331 182.207 101.529C182.468 101.677 182.677 101.795 182.666 101.87C182.641 102.046 181.025 101.762 180.703 101.154L180.634 101.018C180.425 100.61 180.234 100.447 179.653 100.32C178.971 100.172 178.558 100.249 177.797 100.588L177.584 100.685C176.812 101.037 176.339 101.153 175.656 101.05C174.811 100.923 174.265 100.69 173.788 100.32C173.755 100.294 173.722 100.268 173.689 100.24L173.405 99.998C173.206 99.8302 173.071 99.7477 172.888 99.6949L172.776 99.6629C172.303 99.5316 171.221 99.8722 170.432 100.12L170.432 100.12C169.937 100.276 169.558 100.395 169.517 100.339C169.428 100.218 171.948 98.7865 172.89 99.0264ZM173.253 104.926L173.068 104.871C172.178 104.631 169.798 106.063 169.882 106.184C169.921 106.24 170.279 106.121 170.747 105.965C171.492 105.717 172.514 105.377 172.96 105.508L173.066 105.54C173.239 105.593 173.366 105.675 173.554 105.843L173.822 106.085C173.854 106.113 173.884 106.139 173.916 106.165C174.366 106.535 174.882 106.768 175.68 106.895C176.325 106.998 176.772 106.882 177.501 106.53L177.702 106.433C178.421 106.094 178.811 106.017 179.455 106.165C180.004 106.292 180.184 106.455 180.381 106.863L180.447 106.999C180.751 107.607 182.277 107.891 182.301 107.715C182.311 107.64 182.114 107.522 181.867 107.374C181.538 107.176 181.121 106.926 180.992 106.656L180.924 106.515C180.654 105.987 180.321 105.706 179.598 105.539C178.752 105.344 178.227 105.466 177.324 105.903L177.123 106C176.564 106.261 176.24 106.334 175.78 106.261C175.095 106.152 174.684 105.966 174.321 105.668C174.268 105.625 174.217 105.579 174.15 105.519L174.014 105.394L173.906 105.299C173.688 105.114 173.501 105.002 173.253 104.926ZM173.068 111.812L173.253 111.867C173.501 111.943 173.688 112.055 173.906 112.24L174.014 112.335L174.15 112.46C174.217 112.52 174.268 112.566 174.321 112.609C174.684 112.907 175.095 113.092 175.78 113.202C176.24 113.275 176.564 113.202 177.123 112.94L177.324 112.844C178.227 112.407 178.752 112.285 179.598 112.48C180.321 112.647 180.654 112.928 180.924 113.456L180.992 113.596C181.121 113.867 181.538 114.117 181.867 114.315C182.114 114.463 182.311 114.581 182.301 114.656C182.277 114.832 180.751 114.548 180.447 113.94L180.381 113.804C180.184 113.396 180.004 113.233 179.455 113.106C178.811 112.958 178.421 113.035 177.702 113.374L177.501 113.471C176.772 113.823 176.325 113.939 175.68 113.836C174.882 113.709 174.366 113.476 173.916 113.106C173.884 113.08 173.854 113.054 173.822 113.026L173.554 112.784C173.366 112.616 173.239 112.534 173.066 112.481L172.96 112.449C172.514 112.318 171.492 112.658 170.747 112.906C170.279 113.062 169.921 113.181 169.882 113.125C169.798 113.004 172.178 111.572 173.068 111.812ZM173.817 118.808L173.621 118.753C172.679 118.513 170.159 119.945 170.248 120.066C170.289 120.122 170.668 120.003 171.163 119.847L171.163 119.847C171.952 119.599 173.034 119.258 173.507 119.39L173.619 119.422C173.802 119.475 173.937 119.557 174.136 119.725L174.419 119.967C174.453 119.995 174.485 120.021 174.518 120.047C174.995 120.417 175.542 120.65 176.386 120.777C177.069 120.88 177.542 120.764 178.315 120.412L178.528 120.315C179.289 119.976 179.702 119.898 180.383 120.047C180.965 120.173 181.155 120.336 181.364 120.745L181.434 120.881C181.756 121.489 183.372 121.773 183.397 121.597C183.408 121.522 183.199 121.404 182.938 121.256C182.589 121.058 182.148 120.808 182.011 120.537L181.939 120.397C181.653 119.869 181.301 119.588 180.535 119.421C179.639 119.226 179.083 119.348 178.127 119.785L177.914 119.881C177.322 120.142 176.979 120.216 176.493 120.143C175.767 120.033 175.332 119.848 174.948 119.55C174.892 119.506 174.837 119.461 174.767 119.401L174.622 119.276L174.508 119.181C174.278 118.996 174.08 118.884 173.817 118.808ZM175.613 125.176L175.815 125.195C176.087 125.225 176.302 125.301 176.561 125.443L176.69 125.517L176.854 125.614C176.933 125.662 176.995 125.697 177.058 125.73C177.488 125.957 177.949 126.064 178.682 126.045C179.174 126.033 179.499 125.901 180.037 125.541L180.23 125.409C181.095 124.813 181.621 124.596 182.538 124.633C183.321 124.664 183.716 124.88 184.09 125.351L184.185 125.476C184.367 125.719 184.845 125.889 185.223 126.023C185.505 126.123 185.732 126.203 185.734 126.279C185.74 126.457 184.099 126.458 183.677 125.915L183.584 125.792C183.308 125.427 183.092 125.299 182.497 125.276C181.8 125.248 181.407 125.396 180.716 125.862L180.523 125.994C179.824 126.475 179.378 126.671 178.688 126.688C177.834 126.71 177.255 126.576 176.721 126.294L176.61 126.233L176.289 126.043C176.064 125.912 175.916 125.855 175.727 125.835L175.611 125.822C175.123 125.775 174.116 126.299 173.382 126.68L173.382 126.68C172.922 126.919 172.569 127.103 172.519 127.054C172.41 126.951 174.644 125.103 175.613 125.176ZM180.221 129.906L180.059 129.922C179.285 130.012 177.744 131.715 177.842 131.776C177.888 131.805 178.144 131.616 178.479 131.37C179.013 130.978 179.745 130.439 180.136 130.402L180.229 130.393C180.381 130.38 180.504 130.401 180.698 130.465L180.975 130.557L181.07 130.586C181.526 130.716 182 130.729 182.672 130.586C183.215 130.47 183.543 130.258 184.038 129.798L184.174 129.671C184.663 129.222 184.956 129.053 185.51 128.97C185.982 128.899 186.169 128.962 186.432 129.192L186.519 129.269C186.919 129.609 188.215 129.363 188.189 129.233C188.178 129.177 187.989 129.151 187.754 129.119C187.439 129.075 187.041 129.021 186.868 128.868L186.777 128.789C186.425 128.495 186.087 128.394 185.464 128.488C184.736 128.597 184.346 128.836 183.735 129.407L183.598 129.534C183.217 129.881 182.976 130.027 182.589 130.11C182.012 130.233 181.635 130.222 181.268 130.118C181.214 130.102 181.161 130.085 181.093 130.062L180.951 130.014L180.84 129.979C180.618 129.912 180.44 129.887 180.221 129.906ZM184.078 133.209L184.24 133.194C184.459 133.175 184.637 133.2 184.859 133.266L184.97 133.302L185.111 133.35C185.18 133.373 185.233 133.39 185.287 133.405C185.654 133.51 186.031 133.52 186.608 133.397C186.995 133.315 187.236 133.169 187.617 132.822L187.753 132.695C188.365 132.124 188.754 131.885 189.483 131.775C190.105 131.682 190.444 131.783 190.796 132.077L190.886 132.155C191.059 132.309 191.458 132.363 191.772 132.406C192.008 132.439 192.196 132.465 192.208 132.521C192.234 132.651 190.937 132.896 190.538 132.557L190.45 132.48C190.187 132.249 190.001 132.187 189.529 132.258C188.975 132.341 188.682 132.51 188.193 132.959L188.056 133.085C187.562 133.546 187.234 133.758 186.69 133.874C186.018 134.017 185.545 134.003 185.089 133.874L184.994 133.845L184.717 133.752C184.523 133.689 184.4 133.668 184.248 133.681L184.155 133.689C183.763 133.727 183.031 134.265 182.498 134.658C182.163 134.904 181.907 135.092 181.861 135.064C181.763 135.003 183.303 133.3 184.078 133.209ZM189.384 136.748L189.256 136.784C188.65 136.965 187.658 138.544 187.745 138.579C187.786 138.595 187.964 138.408 188.197 138.164L188.197 138.164L188.197 138.164C188.568 137.775 189.078 137.242 189.385 137.157L189.458 137.137C189.578 137.105 189.68 137.104 189.843 137.128L190.078 137.163L190.158 137.172C190.541 137.212 190.921 137.156 191.438 136.947C191.856 136.777 192.089 136.562 192.419 136.124L192.51 136.003C192.838 135.576 193.048 135.399 193.479 135.255C193.847 135.132 194.005 135.155 194.247 135.302L194.328 135.351C194.695 135.567 195.697 135.188 195.658 135.087C195.641 135.044 195.487 135.05 195.294 135.057C195.036 135.067 194.71 135.079 194.55 134.981L194.467 134.931C194.144 134.746 193.859 134.713 193.375 134.875C192.808 135.065 192.53 135.311 192.122 135.854L192.031 135.975C191.775 136.306 191.603 136.457 191.305 136.577C190.861 136.757 190.558 136.802 190.25 136.77C190.205 136.765 190.16 136.759 190.102 136.75L189.982 136.732L189.889 136.719C189.702 136.697 189.556 136.703 189.384 136.748ZM193.316 139.735L193.444 139.7C193.616 139.654 193.762 139.648 193.949 139.671L194.042 139.683L194.162 139.702C194.22 139.711 194.265 139.717 194.31 139.721C194.618 139.753 194.921 139.709 195.365 139.529C195.663 139.408 195.835 139.258 196.091 138.926L196.182 138.806C196.59 138.263 196.868 138.017 197.435 137.827C197.919 137.664 198.204 137.698 198.527 137.883L198.61 137.933C198.77 138.031 199.096 138.019 199.354 138.009C199.547 138.001 199.701 137.995 199.718 138.039C199.757 138.139 198.755 138.518 198.388 138.303L198.307 138.254C198.065 138.107 197.907 138.083 197.539 138.206C197.108 138.351 196.898 138.527 196.57 138.955L196.479 139.075C196.149 139.513 195.916 139.729 195.498 139.898C194.981 140.107 194.601 140.163 194.218 140.124L194.138 140.114L193.903 140.079C193.74 140.056 193.638 140.056 193.518 140.088L193.445 140.108C193.138 140.193 192.628 140.727 192.257 141.116L192.257 141.116C192.024 141.359 191.846 141.546 191.805 141.53C191.718 141.495 192.71 139.917 193.316 139.735ZM198.193 142.622L198.065 142.658C197.459 142.839 196.468 144.418 196.555 144.453C196.595 144.469 196.774 144.282 197.006 144.038C197.378 143.649 197.887 143.116 198.195 143.031L198.268 143.011C198.387 142.979 198.489 142.978 198.653 143.002L198.887 143.037L198.967 143.046C199.35 143.086 199.73 143.03 200.247 142.82C200.666 142.651 200.898 142.436 201.228 141.998L201.319 141.877C201.647 141.449 201.858 141.273 202.289 141.129C202.656 141.006 202.814 141.029 203.057 141.176L203.138 141.225C203.505 141.441 204.507 141.062 204.467 140.961C204.45 140.918 204.296 140.924 204.103 140.931C203.846 140.941 203.52 140.953 203.36 140.855L203.276 140.805C202.953 140.62 202.669 140.587 202.184 140.749C201.617 140.939 201.34 141.185 200.931 141.728L200.84 141.849C200.584 142.18 200.412 142.331 200.115 142.451C199.67 142.631 199.368 142.676 199.059 142.644C199.014 142.639 198.97 142.633 198.911 142.624L198.791 142.606L198.698 142.593C198.511 142.571 198.365 142.576 198.193 142.622Z" fill="#FFB61D"/>
</svg>
